M48
;DRILL file {KiCad (5.0.2)-1} date 2/25/2019 2:42:36 PM
;FORMAT={-:-/ absolute / metric / decimal}
FMAT,2
METRIC,TZ
T1C0.400
T2C0.500
T3C0.762
T4C1.000
T5C1.100
T6C1.500
T7C1.524
T8C2.000
%
G90
G05
T1
X53.873Y-136.423
X54.529Y-137.714
X54.712Y-145.745
X55.236Y-138.421
X55.356Y-144.933
X55.88Y-144.082
X55.944Y-139.129
X56.134Y-145.745
X57.75Y-143.25
X58.61Y-144.97
X59.Y-143.25
X59.436Y-129.286
X60.25Y-143.25
X60.706Y-129.794
X61.023Y-144.335
X61.722Y-143.129
X62.306Y-136.195
X63.055Y-143.856
X63.627Y-137.16
X64.262Y-144.583
X64.706Y-138.239
X65.786Y-139.129
X66.358Y-144.589
X66.446Y-89.56
X66.54Y-139.785
X68.135Y-143.891
X69.342Y-123.063
X70.802Y-143.129
X77.851Y-128.651
X85.344Y-129.667
X92.202Y-74.168
X92.202Y-100.965
X93.091Y-101.727
X94.Y-76.75
X94.361Y-106.045
X94.5Y-94.25
X97.028Y-109.855
X109.474Y-103.505
X109.474Y-152.908
X113.919Y-127.889
X114.808Y-106.299
X115.57Y-105.41
X128.016Y-152.908
X132.461Y-127.889
X146.558Y-152.781
X151.13Y-127.889
X165.1Y-152.781
X169.672Y-127.889
X183.642Y-152.781
X188.214Y-127.889
X193.294Y-76.708
X196.469Y-94.107
X202.184Y-152.781
X206.756Y-127.889
T2
X88.011Y-140.589
X88.011Y-142.621
X88.011Y-144.653
X97.028Y-140.589
X97.028Y-142.621
X97.028Y-144.653
X196.85Y-112.776
T3
X60.325Y-81.026
X62.865Y-81.026
X65.405Y-81.026
X67.945Y-81.026
T4
X110.617Y-124.079
X115.062Y-148.209
X129.159Y-124.079
X133.604Y-148.209
X147.828Y-124.079
X152.146Y-148.209
X166.37Y-124.079
X170.688Y-148.209
X184.785Y-124.079
X189.23Y-148.209
X198.247Y-102.616
X203.454Y-124.079
X207.772Y-148.209
X52.959Y-100.838
X55.499Y-100.838
X58.039Y-100.838
X60.579Y-100.838
X63.119Y-100.838
X65.659Y-100.838
X68.199Y-100.838
X70.739Y-100.838
X73.279Y-100.838
X75.819Y-100.838
X78.359Y-100.838
X80.899Y-100.838
X83.439Y-100.838
X85.979Y-100.838
X88.519Y-100.838
X86.741Y-64.643
X86.741Y-67.183
X86.741Y-69.723
X86.741Y-72.263
X52.959Y-126.238
X55.499Y-126.238
X58.039Y-126.238
X60.579Y-126.238
X63.119Y-126.238
X65.659Y-126.238
X68.199Y-126.238
X70.739Y-126.238
X73.279Y-126.238
X75.819Y-126.238
X78.359Y-126.238
X80.899Y-126.238
X83.439Y-126.238
X85.979Y-126.238
X88.519Y-126.238
X59.944Y-149.606
X62.484Y-149.606
X65.024Y-149.606
X67.564Y-149.606
X70.104Y-149.606
X72.644Y-149.606
X75.184Y-149.606
X77.724Y-149.606
T5
X147.066Y-98.505
X147.066Y-103.505
X152.066Y-98.505
X152.066Y-103.505
X194.504Y-65.468
X194.504Y-70.468
X199.504Y-65.468
X199.504Y-70.468
X170.688Y-98.505
X170.688Y-103.505
X175.688Y-98.505
X175.688Y-103.505
X122.428Y-98.505
X122.428Y-103.505
X127.428Y-98.505
X127.428Y-103.505
X194.377Y-81.341
X194.377Y-86.341
X199.377Y-81.341
X199.377Y-86.341
T6
X140.843Y-113.728
X145.843Y-113.728
X150.843Y-113.728
X155.843Y-113.728
X160.843Y-113.728
X165.843Y-113.728
X170.843Y-113.728
X175.843Y-113.728
X180.843Y-113.728
T7
X201.148Y-107.061
X203.698Y-107.061
X206.248Y-107.061
T8
X121.285Y-137.16
X158.242Y-137.16
X184.15Y-103.378
X195.834Y-137.16
T0
M30
