G04 #@! TF.GenerationSoftware,KiCad,Pcbnew,(5.0.2)-1*
G04 #@! TF.CreationDate,2019-02-25T14:42:47-06:00*
G04 #@! TF.ProjectId,OpenThermostat,4f70656e-5468-4657-926d-6f737461742e,rev?*
G04 #@! TF.SameCoordinates,Original*
G04 #@! TF.FileFunction,Paste,Top*
G04 #@! TF.FilePolarity,Positive*
%FSLAX46Y46*%
G04 Gerber Fmt 4.6, Leading zero omitted, Abs format (unit mm)*
G04 Created by KiCad (PCBNEW (5.0.2)-1) date 2/25/2019 2:42:47 PM*
%MOMM*%
%LPD*%
G01*
G04 APERTURE LIST*
%ADD10R,0.700000X1.300000*%
%ADD11R,0.400000X0.600000*%
%ADD12R,1.300000X0.700000*%
%ADD13R,3.000000X1.110000*%
%ADD14R,0.650000X1.950000*%
%ADD15R,1.200000X0.900000*%
%ADD16R,1.875000X1.050000*%
%ADD17R,1.250000X1.000000*%
%ADD18R,0.800000X0.900000*%
%ADD19R,1.000000X1.250000*%
G04 APERTURE END LIST*
D10*
G04 #@! TO.C,R9*
X166304000Y-103505000D03*
X164404000Y-103505000D03*
G04 #@! TD*
D11*
G04 #@! TO.C,Q1*
X168417000Y-147066000D03*
X167117000Y-147066000D03*
X167767000Y-144966000D03*
G04 #@! TD*
G04 #@! TO.C,Q2*
X167371000Y-125349000D03*
X168671000Y-125349000D03*
X168021000Y-127449000D03*
G04 #@! TD*
G04 #@! TO.C,Q3*
X149225000Y-144839000D03*
X148575000Y-146939000D03*
X149875000Y-146939000D03*
G04 #@! TD*
G04 #@! TO.C,Q4*
X148829000Y-125349000D03*
X150129000Y-125349000D03*
X149479000Y-127449000D03*
G04 #@! TD*
G04 #@! TO.C,Q5*
X204851000Y-144839000D03*
X204201000Y-146939000D03*
X205501000Y-146939000D03*
G04 #@! TD*
G04 #@! TO.C,Q6*
X205105000Y-127576000D03*
X205755000Y-125476000D03*
X204455000Y-125476000D03*
G04 #@! TD*
G04 #@! TO.C,Q7*
X186309000Y-144839000D03*
X185659000Y-146939000D03*
X186959000Y-146939000D03*
G04 #@! TD*
G04 #@! TO.C,Q8*
X186563000Y-127576000D03*
X187213000Y-125476000D03*
X185913000Y-125476000D03*
G04 #@! TD*
G04 #@! TO.C,Q9*
X131333000Y-146939000D03*
X130033000Y-146939000D03*
X130683000Y-144839000D03*
G04 #@! TD*
G04 #@! TO.C,Q10*
X130160000Y-125349000D03*
X131460000Y-125349000D03*
X130810000Y-127449000D03*
G04 #@! TD*
G04 #@! TO.C,Q11*
X112791000Y-146939000D03*
X111491000Y-146939000D03*
X112141000Y-144839000D03*
G04 #@! TD*
G04 #@! TO.C,Q12*
X112268000Y-127449000D03*
X112918000Y-125349000D03*
X111618000Y-125349000D03*
G04 #@! TD*
D12*
G04 #@! TO.C,R1*
X55372000Y-129098000D03*
X55372000Y-130998000D03*
G04 #@! TD*
G04 #@! TO.C,R2*
X72136000Y-132903000D03*
X72136000Y-131003000D03*
G04 #@! TD*
G04 #@! TO.C,R3*
X87376000Y-133157000D03*
X87376000Y-131257000D03*
G04 #@! TD*
G04 #@! TO.C,R4*
X71628000Y-82484000D03*
X71628000Y-80584000D03*
G04 #@! TD*
G04 #@! TO.C,R5*
X197004000Y-76698000D03*
X197004000Y-74798000D03*
G04 #@! TD*
G04 #@! TO.C,R6*
X196877000Y-90721000D03*
X196877000Y-92621000D03*
G04 #@! TD*
D10*
G04 #@! TO.C,R7*
X116144000Y-103505000D03*
X118044000Y-103505000D03*
G04 #@! TD*
G04 #@! TO.C,R8*
X142555000Y-103505000D03*
X140655000Y-103505000D03*
G04 #@! TD*
G04 #@! TO.C,R10*
X166563000Y-151765000D03*
X168463000Y-151765000D03*
G04 #@! TD*
D12*
G04 #@! TO.C,R11*
X171196000Y-125034000D03*
X171196000Y-126934000D03*
G04 #@! TD*
D10*
G04 #@! TO.C,R12*
X148021000Y-151765000D03*
X149921000Y-151765000D03*
G04 #@! TD*
D12*
G04 #@! TO.C,R13*
X152654000Y-125034000D03*
X152654000Y-126934000D03*
G04 #@! TD*
D10*
G04 #@! TO.C,R14*
X203647000Y-151765000D03*
X205547000Y-151765000D03*
G04 #@! TD*
D12*
G04 #@! TO.C,R15*
X208280000Y-125034000D03*
X208280000Y-126934000D03*
G04 #@! TD*
D10*
G04 #@! TO.C,R16*
X187005000Y-151765000D03*
X185105000Y-151765000D03*
G04 #@! TD*
D12*
G04 #@! TO.C,R17*
X189738000Y-126934000D03*
X189738000Y-125034000D03*
G04 #@! TD*
D10*
G04 #@! TO.C,R18*
X131379000Y-151765000D03*
X129479000Y-151765000D03*
G04 #@! TD*
D12*
G04 #@! TO.C,R19*
X133985000Y-126934000D03*
X133985000Y-125034000D03*
G04 #@! TD*
D10*
G04 #@! TO.C,R20*
X110937000Y-151765000D03*
X112837000Y-151765000D03*
G04 #@! TD*
D12*
G04 #@! TO.C,R21*
X115443000Y-125034000D03*
X115443000Y-126934000D03*
G04 #@! TD*
D10*
G04 #@! TO.C,R22*
X168463000Y-149098000D03*
X166563000Y-149098000D03*
G04 #@! TD*
G04 #@! TO.C,R23*
X168341000Y-122936000D03*
X170241000Y-122936000D03*
G04 #@! TD*
G04 #@! TO.C,R24*
X149921000Y-149098000D03*
X148021000Y-149098000D03*
G04 #@! TD*
G04 #@! TO.C,R25*
X149799000Y-122936000D03*
X151699000Y-122936000D03*
G04 #@! TD*
G04 #@! TO.C,R26*
X205547000Y-149098000D03*
X203647000Y-149098000D03*
G04 #@! TD*
G04 #@! TO.C,R27*
X205425000Y-122936000D03*
X207325000Y-122936000D03*
G04 #@! TD*
G04 #@! TO.C,R28*
X185105000Y-149098000D03*
X187005000Y-149098000D03*
G04 #@! TD*
G04 #@! TO.C,R29*
X188783000Y-122936000D03*
X186883000Y-122936000D03*
G04 #@! TD*
G04 #@! TO.C,R30*
X129479000Y-149098000D03*
X131379000Y-149098000D03*
G04 #@! TD*
G04 #@! TO.C,R31*
X131130000Y-122936000D03*
X133030000Y-122936000D03*
G04 #@! TD*
G04 #@! TO.C,R32*
X110937000Y-149098000D03*
X112837000Y-149098000D03*
G04 #@! TD*
G04 #@! TO.C,R33*
X112588000Y-122936000D03*
X114488000Y-122936000D03*
G04 #@! TD*
D12*
G04 #@! TO.C,R34*
X163322000Y-150180000D03*
X163322000Y-152080000D03*
G04 #@! TD*
G04 #@! TO.C,R35*
X163703000Y-120081000D03*
X163703000Y-121981000D03*
G04 #@! TD*
G04 #@! TO.C,R36*
X144780000Y-152080000D03*
X144780000Y-150180000D03*
G04 #@! TD*
G04 #@! TO.C,R37*
X145161000Y-121981000D03*
X145161000Y-120081000D03*
G04 #@! TD*
G04 #@! TO.C,R38*
X200406000Y-150180000D03*
X200406000Y-152080000D03*
G04 #@! TD*
G04 #@! TO.C,R39*
X200787000Y-120081000D03*
X200787000Y-121981000D03*
G04 #@! TD*
G04 #@! TO.C,R40*
X181864000Y-150180000D03*
X181864000Y-152080000D03*
G04 #@! TD*
G04 #@! TO.C,R41*
X182118000Y-121981000D03*
X182118000Y-120081000D03*
G04 #@! TD*
G04 #@! TO.C,R42*
X126238000Y-152207000D03*
X126238000Y-150307000D03*
G04 #@! TD*
G04 #@! TO.C,R43*
X126492000Y-120081000D03*
X126492000Y-121981000D03*
G04 #@! TD*
G04 #@! TO.C,R44*
X107696000Y-150307000D03*
X107696000Y-152207000D03*
G04 #@! TD*
G04 #@! TO.C,R45*
X107950000Y-121981000D03*
X107950000Y-120081000D03*
G04 #@! TD*
D13*
G04 #@! TO.C,U4*
X171450000Y-142367000D03*
X164160000Y-142367000D03*
X164160000Y-137287000D03*
X171450000Y-137287000D03*
X164160000Y-134747000D03*
X171450000Y-134747000D03*
X171450000Y-132207000D03*
X164160000Y-132207000D03*
X171450000Y-129667000D03*
X164160000Y-129667000D03*
G04 #@! TD*
G04 #@! TO.C,U5*
X145618000Y-129667000D03*
X152908000Y-129667000D03*
X145618000Y-132207000D03*
X152908000Y-132207000D03*
X152908000Y-134747000D03*
X145618000Y-134747000D03*
X152908000Y-137287000D03*
X145618000Y-137287000D03*
X145618000Y-142367000D03*
X152908000Y-142367000D03*
G04 #@! TD*
G04 #@! TO.C,U6*
X201244000Y-129667000D03*
X208534000Y-129667000D03*
X201244000Y-132207000D03*
X208534000Y-132207000D03*
X208534000Y-134747000D03*
X201244000Y-134747000D03*
X208534000Y-137287000D03*
X201244000Y-137287000D03*
X201244000Y-142367000D03*
X208534000Y-142367000D03*
G04 #@! TD*
G04 #@! TO.C,U7*
X182702000Y-129667000D03*
X189992000Y-129667000D03*
X182702000Y-132207000D03*
X189992000Y-132207000D03*
X189992000Y-134747000D03*
X182702000Y-134747000D03*
X189992000Y-137287000D03*
X182702000Y-137287000D03*
X182702000Y-142367000D03*
X189992000Y-142367000D03*
G04 #@! TD*
G04 #@! TO.C,U8*
X134366000Y-142367000D03*
X127076000Y-142367000D03*
X127076000Y-137287000D03*
X134366000Y-137287000D03*
X127076000Y-134747000D03*
X134366000Y-134747000D03*
X134366000Y-132207000D03*
X127076000Y-132207000D03*
X134366000Y-129667000D03*
X127076000Y-129667000D03*
G04 #@! TD*
G04 #@! TO.C,U9*
X115824000Y-142367000D03*
X108534000Y-142367000D03*
X108534000Y-137287000D03*
X115824000Y-137287000D03*
X108534000Y-134747000D03*
X115824000Y-134747000D03*
X115824000Y-132207000D03*
X108534000Y-132207000D03*
X115824000Y-129667000D03*
X108534000Y-129667000D03*
G04 #@! TD*
D14*
G04 #@! TO.C,U1*
X57658000Y-131800000D03*
X58928000Y-131800000D03*
X60198000Y-131800000D03*
X61468000Y-131800000D03*
X62738000Y-131800000D03*
X64008000Y-131800000D03*
X65278000Y-131800000D03*
X66548000Y-131800000D03*
X66548000Y-141250000D03*
X65278000Y-141250000D03*
X64008000Y-141250000D03*
X62738000Y-141250000D03*
X61468000Y-141250000D03*
X60198000Y-141250000D03*
X58928000Y-141250000D03*
X57658000Y-141250000D03*
G04 #@! TD*
D15*
G04 #@! TO.C,D1*
X163322000Y-148335000D03*
X163322000Y-145035000D03*
G04 #@! TD*
G04 #@! TO.C,D2*
X163703000Y-127253000D03*
X163703000Y-123953000D03*
G04 #@! TD*
G04 #@! TO.C,D3*
X144780000Y-148335000D03*
X144780000Y-145035000D03*
G04 #@! TD*
G04 #@! TO.C,D4*
X145161000Y-127253000D03*
X145161000Y-123953000D03*
G04 #@! TD*
G04 #@! TO.C,D5*
X200406000Y-145035000D03*
X200406000Y-148335000D03*
G04 #@! TD*
G04 #@! TO.C,D6*
X200787000Y-127253000D03*
X200787000Y-123953000D03*
G04 #@! TD*
G04 #@! TO.C,D7*
X181864000Y-148335000D03*
X181864000Y-145035000D03*
G04 #@! TD*
G04 #@! TO.C,D8*
X182118000Y-127253000D03*
X182118000Y-123953000D03*
G04 #@! TD*
G04 #@! TO.C,D9*
X126238000Y-148462000D03*
X126238000Y-145162000D03*
G04 #@! TD*
G04 #@! TO.C,D10*
X126492000Y-127253000D03*
X126492000Y-123953000D03*
G04 #@! TD*
G04 #@! TO.C,D11*
X107696000Y-148462000D03*
X107696000Y-145162000D03*
G04 #@! TD*
G04 #@! TO.C,D12*
X107950000Y-127253000D03*
X107950000Y-123953000D03*
G04 #@! TD*
D16*
G04 #@! TO.C,U10*
X190929500Y-104157000D03*
X196254500Y-104157000D03*
X190929500Y-106657000D03*
X196254500Y-106657000D03*
G04 #@! TD*
D17*
G04 #@! TO.C,C1*
X196850000Y-109490000D03*
X196850000Y-111490000D03*
G04 #@! TD*
D18*
G04 #@! TO.C,D13*
X59080400Y-89560400D03*
X61180400Y-89560400D03*
G04 #@! TD*
D10*
G04 #@! TO.C,R46*
X63388401Y-89560400D03*
X65288401Y-89560400D03*
G04 #@! TD*
D19*
G04 #@! TO.C,C2*
X56943500Y-97917000D03*
X54943500Y-97917000D03*
G04 #@! TD*
D17*
G04 #@! TO.C,C3*
X83248500Y-66976500D03*
X83248500Y-64976500D03*
G04 #@! TD*
M02*
