G04 #@! TF.GenerationSoftware,KiCad,Pcbnew,(5.0.2)-1*
G04 #@! TF.CreationDate,2019-02-25T14:42:47-06:00*
G04 #@! TF.ProjectId,OpenThermostat,4f70656e-5468-4657-926d-6f737461742e,rev?*
G04 #@! TF.SameCoordinates,Original*
G04 #@! TF.FileFunction,Soldermask,Top*
G04 #@! TF.FilePolarity,Negative*
%FSLAX46Y46*%
G04 Gerber Fmt 4.6, Leading zero omitted, Abs format (unit mm)*
G04 Created by KiCad (PCBNEW (5.0.2)-1) date 2/25/2019 2:42:47 PM*
%MOMM*%
%LPD*%
G01*
G04 APERTURE LIST*
%ADD10C,0.100000*%
G04 APERTURE END LIST*
D10*
G36*
X210651703Y-154798486D02*
X210942883Y-154919097D01*
X211204944Y-155094201D01*
X211427799Y-155317056D01*
X211602903Y-155579117D01*
X211723514Y-155870297D01*
X211785000Y-156179412D01*
X211785000Y-156494588D01*
X211723514Y-156803703D01*
X211602903Y-157094883D01*
X211427799Y-157356944D01*
X211204944Y-157579799D01*
X210942883Y-157754903D01*
X210651703Y-157875514D01*
X210342588Y-157937000D01*
X210027412Y-157937000D01*
X209718297Y-157875514D01*
X209427117Y-157754903D01*
X209165056Y-157579799D01*
X208942201Y-157356944D01*
X208767097Y-157094883D01*
X208646486Y-156803703D01*
X208585000Y-156494588D01*
X208585000Y-156179412D01*
X208646486Y-155870297D01*
X208767097Y-155579117D01*
X208942201Y-155317056D01*
X209165056Y-155094201D01*
X209427117Y-154919097D01*
X209718297Y-154798486D01*
X210027412Y-154737000D01*
X210342588Y-154737000D01*
X210651703Y-154798486D01*
X210651703Y-154798486D01*
G37*
G36*
X54949703Y-154798486D02*
X55240883Y-154919097D01*
X55502944Y-155094201D01*
X55725799Y-155317056D01*
X55900903Y-155579117D01*
X56021514Y-155870297D01*
X56083000Y-156179412D01*
X56083000Y-156494588D01*
X56021514Y-156803703D01*
X55900903Y-157094883D01*
X55725799Y-157356944D01*
X55502944Y-157579799D01*
X55240883Y-157754903D01*
X54949703Y-157875514D01*
X54640588Y-157937000D01*
X54325412Y-157937000D01*
X54016297Y-157875514D01*
X53725117Y-157754903D01*
X53463056Y-157579799D01*
X53240201Y-157356944D01*
X53065097Y-157094883D01*
X52944486Y-156803703D01*
X52883000Y-156494588D01*
X52883000Y-156179412D01*
X52944486Y-155870297D01*
X53065097Y-155579117D01*
X53240201Y-155317056D01*
X53463056Y-155094201D01*
X53725117Y-154919097D01*
X54016297Y-154798486D01*
X54325412Y-154737000D01*
X54640588Y-154737000D01*
X54949703Y-154798486D01*
X54949703Y-154798486D01*
G37*
G36*
X126888000Y-152557000D02*
X125588000Y-152557000D01*
X125588000Y-151857000D01*
X126888000Y-151857000D01*
X126888000Y-152557000D01*
X126888000Y-152557000D01*
G37*
G36*
X108346000Y-152557000D02*
X107046000Y-152557000D01*
X107046000Y-151857000D01*
X108346000Y-151857000D01*
X108346000Y-152557000D01*
X108346000Y-152557000D01*
G37*
G36*
X182514000Y-152430000D02*
X181214000Y-152430000D01*
X181214000Y-151730000D01*
X182514000Y-151730000D01*
X182514000Y-152430000D01*
X182514000Y-152430000D01*
G37*
G36*
X201056000Y-152430000D02*
X199756000Y-152430000D01*
X199756000Y-151730000D01*
X201056000Y-151730000D01*
X201056000Y-152430000D01*
X201056000Y-152430000D01*
G37*
G36*
X145430000Y-152430000D02*
X144130000Y-152430000D01*
X144130000Y-151730000D01*
X145430000Y-151730000D01*
X145430000Y-152430000D01*
X145430000Y-152430000D01*
G37*
G36*
X163972000Y-152430000D02*
X162672000Y-152430000D01*
X162672000Y-151730000D01*
X163972000Y-151730000D01*
X163972000Y-152430000D01*
X163972000Y-152430000D01*
G37*
G36*
X129829000Y-152415000D02*
X129129000Y-152415000D01*
X129129000Y-151115000D01*
X129829000Y-151115000D01*
X129829000Y-152415000D01*
X129829000Y-152415000D01*
G37*
G36*
X166913000Y-152415000D02*
X166213000Y-152415000D01*
X166213000Y-151115000D01*
X166913000Y-151115000D01*
X166913000Y-152415000D01*
X166913000Y-152415000D01*
G37*
G36*
X168813000Y-152415000D02*
X168113000Y-152415000D01*
X168113000Y-151115000D01*
X168813000Y-151115000D01*
X168813000Y-152415000D01*
X168813000Y-152415000D01*
G37*
G36*
X150271000Y-152415000D02*
X149571000Y-152415000D01*
X149571000Y-151115000D01*
X150271000Y-151115000D01*
X150271000Y-152415000D01*
X150271000Y-152415000D01*
G37*
G36*
X203997000Y-152415000D02*
X203297000Y-152415000D01*
X203297000Y-151115000D01*
X203997000Y-151115000D01*
X203997000Y-152415000D01*
X203997000Y-152415000D01*
G37*
G36*
X205897000Y-152415000D02*
X205197000Y-152415000D01*
X205197000Y-151115000D01*
X205897000Y-151115000D01*
X205897000Y-152415000D01*
X205897000Y-152415000D01*
G37*
G36*
X187355000Y-152415000D02*
X186655000Y-152415000D01*
X186655000Y-151115000D01*
X187355000Y-151115000D01*
X187355000Y-152415000D01*
X187355000Y-152415000D01*
G37*
G36*
X185455000Y-152415000D02*
X184755000Y-152415000D01*
X184755000Y-151115000D01*
X185455000Y-151115000D01*
X185455000Y-152415000D01*
X185455000Y-152415000D01*
G37*
G36*
X131729000Y-152415000D02*
X131029000Y-152415000D01*
X131029000Y-151115000D01*
X131729000Y-151115000D01*
X131729000Y-152415000D01*
X131729000Y-152415000D01*
G37*
G36*
X111287000Y-152415000D02*
X110587000Y-152415000D01*
X110587000Y-151115000D01*
X111287000Y-151115000D01*
X111287000Y-152415000D01*
X111287000Y-152415000D01*
G37*
G36*
X148371000Y-152415000D02*
X147671000Y-152415000D01*
X147671000Y-151115000D01*
X148371000Y-151115000D01*
X148371000Y-152415000D01*
X148371000Y-152415000D01*
G37*
G36*
X113187000Y-152415000D02*
X112487000Y-152415000D01*
X112487000Y-151115000D01*
X113187000Y-151115000D01*
X113187000Y-152415000D01*
X113187000Y-152415000D01*
G37*
G36*
X126888000Y-150657000D02*
X125588000Y-150657000D01*
X125588000Y-149957000D01*
X126888000Y-149957000D01*
X126888000Y-150657000D01*
X126888000Y-150657000D01*
G37*
G36*
X108346000Y-150657000D02*
X107046000Y-150657000D01*
X107046000Y-149957000D01*
X108346000Y-149957000D01*
X108346000Y-150657000D01*
X108346000Y-150657000D01*
G37*
G36*
X182514000Y-150530000D02*
X181214000Y-150530000D01*
X181214000Y-149830000D01*
X182514000Y-149830000D01*
X182514000Y-150530000D01*
X182514000Y-150530000D01*
G37*
G36*
X201056000Y-150530000D02*
X199756000Y-150530000D01*
X199756000Y-149830000D01*
X201056000Y-149830000D01*
X201056000Y-150530000D01*
X201056000Y-150530000D01*
G37*
G36*
X145430000Y-150530000D02*
X144130000Y-150530000D01*
X144130000Y-149830000D01*
X145430000Y-149830000D01*
X145430000Y-150530000D01*
X145430000Y-150530000D01*
G37*
G36*
X163972000Y-150530000D02*
X162672000Y-150530000D01*
X162672000Y-149830000D01*
X163972000Y-149830000D01*
X163972000Y-150530000D01*
X163972000Y-150530000D01*
G37*
G36*
X67730630Y-148768299D02*
X67890855Y-148816903D01*
X68038520Y-148895831D01*
X68167949Y-149002051D01*
X68274169Y-149131480D01*
X68353097Y-149279145D01*
X68401701Y-149439370D01*
X68418112Y-149606000D01*
X68401701Y-149772630D01*
X68353097Y-149932855D01*
X68274169Y-150080520D01*
X68167949Y-150209949D01*
X68038520Y-150316169D01*
X67890855Y-150395097D01*
X67730630Y-150443701D01*
X67605752Y-150456000D01*
X67522248Y-150456000D01*
X67397370Y-150443701D01*
X67237145Y-150395097D01*
X67089480Y-150316169D01*
X66960051Y-150209949D01*
X66853831Y-150080520D01*
X66774903Y-149932855D01*
X66726299Y-149772630D01*
X66709888Y-149606000D01*
X66726299Y-149439370D01*
X66774903Y-149279145D01*
X66853831Y-149131480D01*
X66960051Y-149002051D01*
X67089480Y-148895831D01*
X67237145Y-148816903D01*
X67397370Y-148768299D01*
X67522248Y-148756000D01*
X67605752Y-148756000D01*
X67730630Y-148768299D01*
X67730630Y-148768299D01*
G37*
G36*
X62650630Y-148768299D02*
X62810855Y-148816903D01*
X62958520Y-148895831D01*
X63087949Y-149002051D01*
X63194169Y-149131480D01*
X63273097Y-149279145D01*
X63321701Y-149439370D01*
X63338112Y-149606000D01*
X63321701Y-149772630D01*
X63273097Y-149932855D01*
X63194169Y-150080520D01*
X63087949Y-150209949D01*
X62958520Y-150316169D01*
X62810855Y-150395097D01*
X62650630Y-150443701D01*
X62525752Y-150456000D01*
X62442248Y-150456000D01*
X62317370Y-150443701D01*
X62157145Y-150395097D01*
X62009480Y-150316169D01*
X61880051Y-150209949D01*
X61773831Y-150080520D01*
X61694903Y-149932855D01*
X61646299Y-149772630D01*
X61629888Y-149606000D01*
X61646299Y-149439370D01*
X61694903Y-149279145D01*
X61773831Y-149131480D01*
X61880051Y-149002051D01*
X62009480Y-148895831D01*
X62157145Y-148816903D01*
X62317370Y-148768299D01*
X62442248Y-148756000D01*
X62525752Y-148756000D01*
X62650630Y-148768299D01*
X62650630Y-148768299D01*
G37*
G36*
X60110630Y-148768299D02*
X60270855Y-148816903D01*
X60418520Y-148895831D01*
X60547949Y-149002051D01*
X60654169Y-149131480D01*
X60733097Y-149279145D01*
X60781701Y-149439370D01*
X60798112Y-149606000D01*
X60781701Y-149772630D01*
X60733097Y-149932855D01*
X60654169Y-150080520D01*
X60547949Y-150209949D01*
X60418520Y-150316169D01*
X60270855Y-150395097D01*
X60110630Y-150443701D01*
X59985752Y-150456000D01*
X59902248Y-150456000D01*
X59777370Y-150443701D01*
X59617145Y-150395097D01*
X59469480Y-150316169D01*
X59340051Y-150209949D01*
X59233831Y-150080520D01*
X59154903Y-149932855D01*
X59106299Y-149772630D01*
X59089888Y-149606000D01*
X59106299Y-149439370D01*
X59154903Y-149279145D01*
X59233831Y-149131480D01*
X59340051Y-149002051D01*
X59469480Y-148895831D01*
X59617145Y-148816903D01*
X59777370Y-148768299D01*
X59902248Y-148756000D01*
X59985752Y-148756000D01*
X60110630Y-148768299D01*
X60110630Y-148768299D01*
G37*
G36*
X65190630Y-148768299D02*
X65350855Y-148816903D01*
X65498520Y-148895831D01*
X65627949Y-149002051D01*
X65734169Y-149131480D01*
X65813097Y-149279145D01*
X65861701Y-149439370D01*
X65878112Y-149606000D01*
X65861701Y-149772630D01*
X65813097Y-149932855D01*
X65734169Y-150080520D01*
X65627949Y-150209949D01*
X65498520Y-150316169D01*
X65350855Y-150395097D01*
X65190630Y-150443701D01*
X65065752Y-150456000D01*
X64982248Y-150456000D01*
X64857370Y-150443701D01*
X64697145Y-150395097D01*
X64549480Y-150316169D01*
X64420051Y-150209949D01*
X64313831Y-150080520D01*
X64234903Y-149932855D01*
X64186299Y-149772630D01*
X64169888Y-149606000D01*
X64186299Y-149439370D01*
X64234903Y-149279145D01*
X64313831Y-149131480D01*
X64420051Y-149002051D01*
X64549480Y-148895831D01*
X64697145Y-148816903D01*
X64857370Y-148768299D01*
X64982248Y-148756000D01*
X65065752Y-148756000D01*
X65190630Y-148768299D01*
X65190630Y-148768299D01*
G37*
G36*
X70270630Y-148768299D02*
X70430855Y-148816903D01*
X70578520Y-148895831D01*
X70707949Y-149002051D01*
X70814169Y-149131480D01*
X70893097Y-149279145D01*
X70941701Y-149439370D01*
X70958112Y-149606000D01*
X70941701Y-149772630D01*
X70893097Y-149932855D01*
X70814169Y-150080520D01*
X70707949Y-150209949D01*
X70578520Y-150316169D01*
X70430855Y-150395097D01*
X70270630Y-150443701D01*
X70145752Y-150456000D01*
X70062248Y-150456000D01*
X69937370Y-150443701D01*
X69777145Y-150395097D01*
X69629480Y-150316169D01*
X69500051Y-150209949D01*
X69393831Y-150080520D01*
X69314903Y-149932855D01*
X69266299Y-149772630D01*
X69249888Y-149606000D01*
X69266299Y-149439370D01*
X69314903Y-149279145D01*
X69393831Y-149131480D01*
X69500051Y-149002051D01*
X69629480Y-148895831D01*
X69777145Y-148816903D01*
X69937370Y-148768299D01*
X70062248Y-148756000D01*
X70145752Y-148756000D01*
X70270630Y-148768299D01*
X70270630Y-148768299D01*
G37*
G36*
X72810630Y-148768299D02*
X72970855Y-148816903D01*
X73118520Y-148895831D01*
X73247949Y-149002051D01*
X73354169Y-149131480D01*
X73433097Y-149279145D01*
X73481701Y-149439370D01*
X73498112Y-149606000D01*
X73481701Y-149772630D01*
X73433097Y-149932855D01*
X73354169Y-150080520D01*
X73247949Y-150209949D01*
X73118520Y-150316169D01*
X72970855Y-150395097D01*
X72810630Y-150443701D01*
X72685752Y-150456000D01*
X72602248Y-150456000D01*
X72477370Y-150443701D01*
X72317145Y-150395097D01*
X72169480Y-150316169D01*
X72040051Y-150209949D01*
X71933831Y-150080520D01*
X71854903Y-149932855D01*
X71806299Y-149772630D01*
X71789888Y-149606000D01*
X71806299Y-149439370D01*
X71854903Y-149279145D01*
X71933831Y-149131480D01*
X72040051Y-149002051D01*
X72169480Y-148895831D01*
X72317145Y-148816903D01*
X72477370Y-148768299D01*
X72602248Y-148756000D01*
X72685752Y-148756000D01*
X72810630Y-148768299D01*
X72810630Y-148768299D01*
G37*
G36*
X75350630Y-148768299D02*
X75510855Y-148816903D01*
X75658520Y-148895831D01*
X75787949Y-149002051D01*
X75894169Y-149131480D01*
X75973097Y-149279145D01*
X76021701Y-149439370D01*
X76038112Y-149606000D01*
X76021701Y-149772630D01*
X75973097Y-149932855D01*
X75894169Y-150080520D01*
X75787949Y-150209949D01*
X75658520Y-150316169D01*
X75510855Y-150395097D01*
X75350630Y-150443701D01*
X75225752Y-150456000D01*
X75142248Y-150456000D01*
X75017370Y-150443701D01*
X74857145Y-150395097D01*
X74709480Y-150316169D01*
X74580051Y-150209949D01*
X74473831Y-150080520D01*
X74394903Y-149932855D01*
X74346299Y-149772630D01*
X74329888Y-149606000D01*
X74346299Y-149439370D01*
X74394903Y-149279145D01*
X74473831Y-149131480D01*
X74580051Y-149002051D01*
X74709480Y-148895831D01*
X74857145Y-148816903D01*
X75017370Y-148768299D01*
X75142248Y-148756000D01*
X75225752Y-148756000D01*
X75350630Y-148768299D01*
X75350630Y-148768299D01*
G37*
G36*
X78574000Y-150456000D02*
X76874000Y-150456000D01*
X76874000Y-148756000D01*
X78574000Y-148756000D01*
X78574000Y-150456000D01*
X78574000Y-150456000D01*
G37*
G36*
X148371000Y-149748000D02*
X147671000Y-149748000D01*
X147671000Y-148448000D01*
X148371000Y-148448000D01*
X148371000Y-149748000D01*
X148371000Y-149748000D01*
G37*
G36*
X187355000Y-149748000D02*
X186655000Y-149748000D01*
X186655000Y-148448000D01*
X187355000Y-148448000D01*
X187355000Y-149748000D01*
X187355000Y-149748000D01*
G37*
G36*
X185455000Y-149748000D02*
X184755000Y-149748000D01*
X184755000Y-148448000D01*
X185455000Y-148448000D01*
X185455000Y-149748000D01*
X185455000Y-149748000D01*
G37*
G36*
X203997000Y-149748000D02*
X203297000Y-149748000D01*
X203297000Y-148448000D01*
X203997000Y-148448000D01*
X203997000Y-149748000D01*
X203997000Y-149748000D01*
G37*
G36*
X205897000Y-149748000D02*
X205197000Y-149748000D01*
X205197000Y-148448000D01*
X205897000Y-148448000D01*
X205897000Y-149748000D01*
X205897000Y-149748000D01*
G37*
G36*
X150271000Y-149748000D02*
X149571000Y-149748000D01*
X149571000Y-148448000D01*
X150271000Y-148448000D01*
X150271000Y-149748000D01*
X150271000Y-149748000D01*
G37*
G36*
X166913000Y-149748000D02*
X166213000Y-149748000D01*
X166213000Y-148448000D01*
X166913000Y-148448000D01*
X166913000Y-149748000D01*
X166913000Y-149748000D01*
G37*
G36*
X168813000Y-149748000D02*
X168113000Y-149748000D01*
X168113000Y-148448000D01*
X168813000Y-148448000D01*
X168813000Y-149748000D01*
X168813000Y-149748000D01*
G37*
G36*
X131729000Y-149748000D02*
X131029000Y-149748000D01*
X131029000Y-148448000D01*
X131729000Y-148448000D01*
X131729000Y-149748000D01*
X131729000Y-149748000D01*
G37*
G36*
X111287000Y-149748000D02*
X110587000Y-149748000D01*
X110587000Y-148448000D01*
X111287000Y-148448000D01*
X111287000Y-149748000D01*
X111287000Y-149748000D01*
G37*
G36*
X113187000Y-149748000D02*
X112487000Y-149748000D01*
X112487000Y-148448000D01*
X113187000Y-148448000D01*
X113187000Y-149748000D01*
X113187000Y-149748000D01*
G37*
G36*
X129829000Y-149748000D02*
X129129000Y-149748000D01*
X129129000Y-148448000D01*
X129829000Y-148448000D01*
X129829000Y-149748000D01*
X129829000Y-149748000D01*
G37*
G36*
X126838000Y-148912000D02*
X125638000Y-148912000D01*
X125638000Y-148012000D01*
X126838000Y-148012000D01*
X126838000Y-148912000D01*
X126838000Y-148912000D01*
G37*
G36*
X108296000Y-148912000D02*
X107096000Y-148912000D01*
X107096000Y-148012000D01*
X108296000Y-148012000D01*
X108296000Y-148912000D01*
X108296000Y-148912000D01*
G37*
G36*
X182464000Y-148785000D02*
X181264000Y-148785000D01*
X181264000Y-147885000D01*
X182464000Y-147885000D01*
X182464000Y-148785000D01*
X182464000Y-148785000D01*
G37*
G36*
X145380000Y-148785000D02*
X144180000Y-148785000D01*
X144180000Y-147885000D01*
X145380000Y-147885000D01*
X145380000Y-148785000D01*
X145380000Y-148785000D01*
G37*
G36*
X163922000Y-148785000D02*
X162722000Y-148785000D01*
X162722000Y-147885000D01*
X163922000Y-147885000D01*
X163922000Y-148785000D01*
X163922000Y-148785000D01*
G37*
G36*
X201006000Y-148785000D02*
X199806000Y-148785000D01*
X199806000Y-147885000D01*
X201006000Y-147885000D01*
X201006000Y-148785000D01*
X201006000Y-148785000D01*
G37*
G36*
X168617000Y-147366000D02*
X168217000Y-147366000D01*
X168217000Y-146766000D01*
X168617000Y-146766000D01*
X168617000Y-147366000D01*
X168617000Y-147366000D01*
G37*
G36*
X167317000Y-147366000D02*
X166917000Y-147366000D01*
X166917000Y-146766000D01*
X167317000Y-146766000D01*
X167317000Y-147366000D01*
X167317000Y-147366000D01*
G37*
G36*
X148775000Y-147239000D02*
X148375000Y-147239000D01*
X148375000Y-146639000D01*
X148775000Y-146639000D01*
X148775000Y-147239000D01*
X148775000Y-147239000D01*
G37*
G36*
X187159000Y-147239000D02*
X186759000Y-147239000D01*
X186759000Y-146639000D01*
X187159000Y-146639000D01*
X187159000Y-147239000D01*
X187159000Y-147239000D01*
G37*
G36*
X204401000Y-147239000D02*
X204001000Y-147239000D01*
X204001000Y-146639000D01*
X204401000Y-146639000D01*
X204401000Y-147239000D01*
X204401000Y-147239000D01*
G37*
G36*
X205701000Y-147239000D02*
X205301000Y-147239000D01*
X205301000Y-146639000D01*
X205701000Y-146639000D01*
X205701000Y-147239000D01*
X205701000Y-147239000D01*
G37*
G36*
X150075000Y-147239000D02*
X149675000Y-147239000D01*
X149675000Y-146639000D01*
X150075000Y-146639000D01*
X150075000Y-147239000D01*
X150075000Y-147239000D01*
G37*
G36*
X131533000Y-147239000D02*
X131133000Y-147239000D01*
X131133000Y-146639000D01*
X131533000Y-146639000D01*
X131533000Y-147239000D01*
X131533000Y-147239000D01*
G37*
G36*
X130233000Y-147239000D02*
X129833000Y-147239000D01*
X129833000Y-146639000D01*
X130233000Y-146639000D01*
X130233000Y-147239000D01*
X130233000Y-147239000D01*
G37*
G36*
X112991000Y-147239000D02*
X112591000Y-147239000D01*
X112591000Y-146639000D01*
X112991000Y-146639000D01*
X112991000Y-147239000D01*
X112991000Y-147239000D01*
G37*
G36*
X111691000Y-147239000D02*
X111291000Y-147239000D01*
X111291000Y-146639000D01*
X111691000Y-146639000D01*
X111691000Y-147239000D01*
X111691000Y-147239000D01*
G37*
G36*
X185859000Y-147239000D02*
X185459000Y-147239000D01*
X185459000Y-146639000D01*
X185859000Y-146639000D01*
X185859000Y-147239000D01*
X185859000Y-147239000D01*
G37*
G36*
X126838000Y-145612000D02*
X125638000Y-145612000D01*
X125638000Y-144712000D01*
X126838000Y-144712000D01*
X126838000Y-145612000D01*
X126838000Y-145612000D01*
G37*
G36*
X108296000Y-145612000D02*
X107096000Y-145612000D01*
X107096000Y-144712000D01*
X108296000Y-144712000D01*
X108296000Y-145612000D01*
X108296000Y-145612000D01*
G37*
G36*
X201006000Y-145485000D02*
X199806000Y-145485000D01*
X199806000Y-144585000D01*
X201006000Y-144585000D01*
X201006000Y-145485000D01*
X201006000Y-145485000D01*
G37*
G36*
X145380000Y-145485000D02*
X144180000Y-145485000D01*
X144180000Y-144585000D01*
X145380000Y-144585000D01*
X145380000Y-145485000D01*
X145380000Y-145485000D01*
G37*
G36*
X163922000Y-145485000D02*
X162722000Y-145485000D01*
X162722000Y-144585000D01*
X163922000Y-144585000D01*
X163922000Y-145485000D01*
X163922000Y-145485000D01*
G37*
G36*
X182464000Y-145485000D02*
X181264000Y-145485000D01*
X181264000Y-144585000D01*
X182464000Y-144585000D01*
X182464000Y-145485000D01*
X182464000Y-145485000D01*
G37*
G36*
X167967000Y-145266000D02*
X167567000Y-145266000D01*
X167567000Y-144666000D01*
X167967000Y-144666000D01*
X167967000Y-145266000D01*
X167967000Y-145266000D01*
G37*
G36*
X149425000Y-145139000D02*
X149025000Y-145139000D01*
X149025000Y-144539000D01*
X149425000Y-144539000D01*
X149425000Y-145139000D01*
X149425000Y-145139000D01*
G37*
G36*
X186509000Y-145139000D02*
X186109000Y-145139000D01*
X186109000Y-144539000D01*
X186509000Y-144539000D01*
X186509000Y-145139000D01*
X186509000Y-145139000D01*
G37*
G36*
X130883000Y-145139000D02*
X130483000Y-145139000D01*
X130483000Y-144539000D01*
X130883000Y-144539000D01*
X130883000Y-145139000D01*
X130883000Y-145139000D01*
G37*
G36*
X205051000Y-145139000D02*
X204651000Y-145139000D01*
X204651000Y-144539000D01*
X205051000Y-144539000D01*
X205051000Y-145139000D01*
X205051000Y-145139000D01*
G37*
G36*
X112341000Y-145139000D02*
X111941000Y-145139000D01*
X111941000Y-144539000D01*
X112341000Y-144539000D01*
X112341000Y-145139000D01*
X112341000Y-145139000D01*
G37*
G36*
X135866000Y-142922000D02*
X132866000Y-142922000D01*
X132866000Y-141812000D01*
X135866000Y-141812000D01*
X135866000Y-142922000D01*
X135866000Y-142922000D01*
G37*
G36*
X154408000Y-142922000D02*
X151408000Y-142922000D01*
X151408000Y-141812000D01*
X154408000Y-141812000D01*
X154408000Y-142922000D01*
X154408000Y-142922000D01*
G37*
G36*
X147118000Y-142922000D02*
X144118000Y-142922000D01*
X144118000Y-141812000D01*
X147118000Y-141812000D01*
X147118000Y-142922000D01*
X147118000Y-142922000D01*
G37*
G36*
X165660000Y-142922000D02*
X162660000Y-142922000D01*
X162660000Y-141812000D01*
X165660000Y-141812000D01*
X165660000Y-142922000D01*
X165660000Y-142922000D01*
G37*
G36*
X172950000Y-142922000D02*
X169950000Y-142922000D01*
X169950000Y-141812000D01*
X172950000Y-141812000D01*
X172950000Y-142922000D01*
X172950000Y-142922000D01*
G37*
G36*
X117324000Y-142922000D02*
X114324000Y-142922000D01*
X114324000Y-141812000D01*
X117324000Y-141812000D01*
X117324000Y-142922000D01*
X117324000Y-142922000D01*
G37*
G36*
X128576000Y-142922000D02*
X125576000Y-142922000D01*
X125576000Y-141812000D01*
X128576000Y-141812000D01*
X128576000Y-142922000D01*
X128576000Y-142922000D01*
G37*
G36*
X184202000Y-142922000D02*
X181202000Y-142922000D01*
X181202000Y-141812000D01*
X184202000Y-141812000D01*
X184202000Y-142922000D01*
X184202000Y-142922000D01*
G37*
G36*
X191492000Y-142922000D02*
X188492000Y-142922000D01*
X188492000Y-141812000D01*
X191492000Y-141812000D01*
X191492000Y-142922000D01*
X191492000Y-142922000D01*
G37*
G36*
X202744000Y-142922000D02*
X199744000Y-142922000D01*
X199744000Y-141812000D01*
X202744000Y-141812000D01*
X202744000Y-142922000D01*
X202744000Y-142922000D01*
G37*
G36*
X110034000Y-142922000D02*
X107034000Y-142922000D01*
X107034000Y-141812000D01*
X110034000Y-141812000D01*
X110034000Y-142922000D01*
X110034000Y-142922000D01*
G37*
G36*
X210034000Y-142922000D02*
X207034000Y-142922000D01*
X207034000Y-141812000D01*
X210034000Y-141812000D01*
X210034000Y-142922000D01*
X210034000Y-142922000D01*
G37*
G36*
X57983000Y-142225000D02*
X57333000Y-142225000D01*
X57333000Y-140275000D01*
X57983000Y-140275000D01*
X57983000Y-142225000D01*
X57983000Y-142225000D01*
G37*
G36*
X59253000Y-142225000D02*
X58603000Y-142225000D01*
X58603000Y-140275000D01*
X59253000Y-140275000D01*
X59253000Y-142225000D01*
X59253000Y-142225000D01*
G37*
G36*
X60523000Y-142225000D02*
X59873000Y-142225000D01*
X59873000Y-140275000D01*
X60523000Y-140275000D01*
X60523000Y-142225000D01*
X60523000Y-142225000D01*
G37*
G36*
X61793000Y-142225000D02*
X61143000Y-142225000D01*
X61143000Y-140275000D01*
X61793000Y-140275000D01*
X61793000Y-142225000D01*
X61793000Y-142225000D01*
G37*
G36*
X63063000Y-142225000D02*
X62413000Y-142225000D01*
X62413000Y-140275000D01*
X63063000Y-140275000D01*
X63063000Y-142225000D01*
X63063000Y-142225000D01*
G37*
G36*
X64333000Y-142225000D02*
X63683000Y-142225000D01*
X63683000Y-140275000D01*
X64333000Y-140275000D01*
X64333000Y-142225000D01*
X64333000Y-142225000D01*
G37*
G36*
X65603000Y-142225000D02*
X64953000Y-142225000D01*
X64953000Y-140275000D01*
X65603000Y-140275000D01*
X65603000Y-142225000D01*
X65603000Y-142225000D01*
G37*
G36*
X66873000Y-142225000D02*
X66223000Y-142225000D01*
X66223000Y-140275000D01*
X66873000Y-140275000D01*
X66873000Y-142225000D01*
X66873000Y-142225000D01*
G37*
G36*
X210034000Y-137842000D02*
X207034000Y-137842000D01*
X207034000Y-136732000D01*
X210034000Y-136732000D01*
X210034000Y-137842000D01*
X210034000Y-137842000D01*
G37*
G36*
X202744000Y-137842000D02*
X199744000Y-137842000D01*
X199744000Y-136732000D01*
X202744000Y-136732000D01*
X202744000Y-137842000D01*
X202744000Y-137842000D01*
G37*
G36*
X184202000Y-137842000D02*
X181202000Y-137842000D01*
X181202000Y-136732000D01*
X184202000Y-136732000D01*
X184202000Y-137842000D01*
X184202000Y-137842000D01*
G37*
G36*
X147118000Y-137842000D02*
X144118000Y-137842000D01*
X144118000Y-136732000D01*
X147118000Y-136732000D01*
X147118000Y-137842000D01*
X147118000Y-137842000D01*
G37*
G36*
X154408000Y-137842000D02*
X151408000Y-137842000D01*
X151408000Y-136732000D01*
X154408000Y-136732000D01*
X154408000Y-137842000D01*
X154408000Y-137842000D01*
G37*
G36*
X128576000Y-137842000D02*
X125576000Y-137842000D01*
X125576000Y-136732000D01*
X128576000Y-136732000D01*
X128576000Y-137842000D01*
X128576000Y-137842000D01*
G37*
G36*
X172950000Y-137842000D02*
X169950000Y-137842000D01*
X169950000Y-136732000D01*
X172950000Y-136732000D01*
X172950000Y-137842000D01*
X172950000Y-137842000D01*
G37*
G36*
X165660000Y-137842000D02*
X162660000Y-137842000D01*
X162660000Y-136732000D01*
X165660000Y-136732000D01*
X165660000Y-137842000D01*
X165660000Y-137842000D01*
G37*
G36*
X191492000Y-137842000D02*
X188492000Y-137842000D01*
X188492000Y-136732000D01*
X191492000Y-136732000D01*
X191492000Y-137842000D01*
X191492000Y-137842000D01*
G37*
G36*
X110034000Y-137842000D02*
X107034000Y-137842000D01*
X107034000Y-136732000D01*
X110034000Y-136732000D01*
X110034000Y-137842000D01*
X110034000Y-137842000D01*
G37*
G36*
X117324000Y-137842000D02*
X114324000Y-137842000D01*
X114324000Y-136732000D01*
X117324000Y-136732000D01*
X117324000Y-137842000D01*
X117324000Y-137842000D01*
G37*
G36*
X135866000Y-137842000D02*
X132866000Y-137842000D01*
X132866000Y-136732000D01*
X135866000Y-136732000D01*
X135866000Y-137842000D01*
X135866000Y-137842000D01*
G37*
G36*
X191492000Y-135302000D02*
X188492000Y-135302000D01*
X188492000Y-134192000D01*
X191492000Y-134192000D01*
X191492000Y-135302000D01*
X191492000Y-135302000D01*
G37*
G36*
X147118000Y-135302000D02*
X144118000Y-135302000D01*
X144118000Y-134192000D01*
X147118000Y-134192000D01*
X147118000Y-135302000D01*
X147118000Y-135302000D01*
G37*
G36*
X154408000Y-135302000D02*
X151408000Y-135302000D01*
X151408000Y-134192000D01*
X154408000Y-134192000D01*
X154408000Y-135302000D01*
X154408000Y-135302000D01*
G37*
G36*
X165660000Y-135302000D02*
X162660000Y-135302000D01*
X162660000Y-134192000D01*
X165660000Y-134192000D01*
X165660000Y-135302000D01*
X165660000Y-135302000D01*
G37*
G36*
X172950000Y-135302000D02*
X169950000Y-135302000D01*
X169950000Y-134192000D01*
X172950000Y-134192000D01*
X172950000Y-135302000D01*
X172950000Y-135302000D01*
G37*
G36*
X184202000Y-135302000D02*
X181202000Y-135302000D01*
X181202000Y-134192000D01*
X184202000Y-134192000D01*
X184202000Y-135302000D01*
X184202000Y-135302000D01*
G37*
G36*
X202744000Y-135302000D02*
X199744000Y-135302000D01*
X199744000Y-134192000D01*
X202744000Y-134192000D01*
X202744000Y-135302000D01*
X202744000Y-135302000D01*
G37*
G36*
X117324000Y-135302000D02*
X114324000Y-135302000D01*
X114324000Y-134192000D01*
X117324000Y-134192000D01*
X117324000Y-135302000D01*
X117324000Y-135302000D01*
G37*
G36*
X110034000Y-135302000D02*
X107034000Y-135302000D01*
X107034000Y-134192000D01*
X110034000Y-134192000D01*
X110034000Y-135302000D01*
X110034000Y-135302000D01*
G37*
G36*
X135866000Y-135302000D02*
X132866000Y-135302000D01*
X132866000Y-134192000D01*
X135866000Y-134192000D01*
X135866000Y-135302000D01*
X135866000Y-135302000D01*
G37*
G36*
X210034000Y-135302000D02*
X207034000Y-135302000D01*
X207034000Y-134192000D01*
X210034000Y-134192000D01*
X210034000Y-135302000D01*
X210034000Y-135302000D01*
G37*
G36*
X128576000Y-135302000D02*
X125576000Y-135302000D01*
X125576000Y-134192000D01*
X128576000Y-134192000D01*
X128576000Y-135302000D01*
X128576000Y-135302000D01*
G37*
G36*
X88026000Y-133507000D02*
X86726000Y-133507000D01*
X86726000Y-132807000D01*
X88026000Y-132807000D01*
X88026000Y-133507000D01*
X88026000Y-133507000D01*
G37*
G36*
X72786000Y-133253000D02*
X71486000Y-133253000D01*
X71486000Y-132553000D01*
X72786000Y-132553000D01*
X72786000Y-133253000D01*
X72786000Y-133253000D01*
G37*
G36*
X61793000Y-132775000D02*
X61143000Y-132775000D01*
X61143000Y-130825000D01*
X61793000Y-130825000D01*
X61793000Y-132775000D01*
X61793000Y-132775000D01*
G37*
G36*
X66873000Y-132775000D02*
X66223000Y-132775000D01*
X66223000Y-130825000D01*
X66873000Y-130825000D01*
X66873000Y-132775000D01*
X66873000Y-132775000D01*
G37*
G36*
X63063000Y-132775000D02*
X62413000Y-132775000D01*
X62413000Y-130825000D01*
X63063000Y-130825000D01*
X63063000Y-132775000D01*
X63063000Y-132775000D01*
G37*
G36*
X59253000Y-132775000D02*
X58603000Y-132775000D01*
X58603000Y-130825000D01*
X59253000Y-130825000D01*
X59253000Y-132775000D01*
X59253000Y-132775000D01*
G37*
G36*
X65603000Y-132775000D02*
X64953000Y-132775000D01*
X64953000Y-130825000D01*
X65603000Y-130825000D01*
X65603000Y-132775000D01*
X65603000Y-132775000D01*
G37*
G36*
X64333000Y-132775000D02*
X63683000Y-132775000D01*
X63683000Y-130825000D01*
X64333000Y-130825000D01*
X64333000Y-132775000D01*
X64333000Y-132775000D01*
G37*
G36*
X57983000Y-132775000D02*
X57333000Y-132775000D01*
X57333000Y-130825000D01*
X57983000Y-130825000D01*
X57983000Y-132775000D01*
X57983000Y-132775000D01*
G37*
G36*
X60523000Y-132775000D02*
X59873000Y-132775000D01*
X59873000Y-130825000D01*
X60523000Y-130825000D01*
X60523000Y-132775000D01*
X60523000Y-132775000D01*
G37*
G36*
X110034000Y-132762000D02*
X107034000Y-132762000D01*
X107034000Y-131652000D01*
X110034000Y-131652000D01*
X110034000Y-132762000D01*
X110034000Y-132762000D01*
G37*
G36*
X154408000Y-132762000D02*
X151408000Y-132762000D01*
X151408000Y-131652000D01*
X154408000Y-131652000D01*
X154408000Y-132762000D01*
X154408000Y-132762000D01*
G37*
G36*
X191492000Y-132762000D02*
X188492000Y-132762000D01*
X188492000Y-131652000D01*
X191492000Y-131652000D01*
X191492000Y-132762000D01*
X191492000Y-132762000D01*
G37*
G36*
X165660000Y-132762000D02*
X162660000Y-132762000D01*
X162660000Y-131652000D01*
X165660000Y-131652000D01*
X165660000Y-132762000D01*
X165660000Y-132762000D01*
G37*
G36*
X135866000Y-132762000D02*
X132866000Y-132762000D01*
X132866000Y-131652000D01*
X135866000Y-131652000D01*
X135866000Y-132762000D01*
X135866000Y-132762000D01*
G37*
G36*
X117324000Y-132762000D02*
X114324000Y-132762000D01*
X114324000Y-131652000D01*
X117324000Y-131652000D01*
X117324000Y-132762000D01*
X117324000Y-132762000D01*
G37*
G36*
X184202000Y-132762000D02*
X181202000Y-132762000D01*
X181202000Y-131652000D01*
X184202000Y-131652000D01*
X184202000Y-132762000D01*
X184202000Y-132762000D01*
G37*
G36*
X172950000Y-132762000D02*
X169950000Y-132762000D01*
X169950000Y-131652000D01*
X172950000Y-131652000D01*
X172950000Y-132762000D01*
X172950000Y-132762000D01*
G37*
G36*
X128576000Y-132762000D02*
X125576000Y-132762000D01*
X125576000Y-131652000D01*
X128576000Y-131652000D01*
X128576000Y-132762000D01*
X128576000Y-132762000D01*
G37*
G36*
X147118000Y-132762000D02*
X144118000Y-132762000D01*
X144118000Y-131652000D01*
X147118000Y-131652000D01*
X147118000Y-132762000D01*
X147118000Y-132762000D01*
G37*
G36*
X202744000Y-132762000D02*
X199744000Y-132762000D01*
X199744000Y-131652000D01*
X202744000Y-131652000D01*
X202744000Y-132762000D01*
X202744000Y-132762000D01*
G37*
G36*
X210034000Y-132762000D02*
X207034000Y-132762000D01*
X207034000Y-131652000D01*
X210034000Y-131652000D01*
X210034000Y-132762000D01*
X210034000Y-132762000D01*
G37*
G36*
X88026000Y-131607000D02*
X86726000Y-131607000D01*
X86726000Y-130907000D01*
X88026000Y-130907000D01*
X88026000Y-131607000D01*
X88026000Y-131607000D01*
G37*
G36*
X72786000Y-131353000D02*
X71486000Y-131353000D01*
X71486000Y-130653000D01*
X72786000Y-130653000D01*
X72786000Y-131353000D01*
X72786000Y-131353000D01*
G37*
G36*
X56022000Y-131348000D02*
X54722000Y-131348000D01*
X54722000Y-130648000D01*
X56022000Y-130648000D01*
X56022000Y-131348000D01*
X56022000Y-131348000D01*
G37*
G36*
X135866000Y-130222000D02*
X132866000Y-130222000D01*
X132866000Y-129112000D01*
X135866000Y-129112000D01*
X135866000Y-130222000D01*
X135866000Y-130222000D01*
G37*
G36*
X128576000Y-130222000D02*
X125576000Y-130222000D01*
X125576000Y-129112000D01*
X128576000Y-129112000D01*
X128576000Y-130222000D01*
X128576000Y-130222000D01*
G37*
G36*
X117324000Y-130222000D02*
X114324000Y-130222000D01*
X114324000Y-129112000D01*
X117324000Y-129112000D01*
X117324000Y-130222000D01*
X117324000Y-130222000D01*
G37*
G36*
X110034000Y-130222000D02*
X107034000Y-130222000D01*
X107034000Y-129112000D01*
X110034000Y-129112000D01*
X110034000Y-130222000D01*
X110034000Y-130222000D01*
G37*
G36*
X172950000Y-130222000D02*
X169950000Y-130222000D01*
X169950000Y-129112000D01*
X172950000Y-129112000D01*
X172950000Y-130222000D01*
X172950000Y-130222000D01*
G37*
G36*
X184202000Y-130222000D02*
X181202000Y-130222000D01*
X181202000Y-129112000D01*
X184202000Y-129112000D01*
X184202000Y-130222000D01*
X184202000Y-130222000D01*
G37*
G36*
X210034000Y-130222000D02*
X207034000Y-130222000D01*
X207034000Y-129112000D01*
X210034000Y-129112000D01*
X210034000Y-130222000D01*
X210034000Y-130222000D01*
G37*
G36*
X202744000Y-130222000D02*
X199744000Y-130222000D01*
X199744000Y-129112000D01*
X202744000Y-129112000D01*
X202744000Y-130222000D01*
X202744000Y-130222000D01*
G37*
G36*
X191492000Y-130222000D02*
X188492000Y-130222000D01*
X188492000Y-129112000D01*
X191492000Y-129112000D01*
X191492000Y-130222000D01*
X191492000Y-130222000D01*
G37*
G36*
X154408000Y-130222000D02*
X151408000Y-130222000D01*
X151408000Y-129112000D01*
X154408000Y-129112000D01*
X154408000Y-130222000D01*
X154408000Y-130222000D01*
G37*
G36*
X147118000Y-130222000D02*
X144118000Y-130222000D01*
X144118000Y-129112000D01*
X147118000Y-129112000D01*
X147118000Y-130222000D01*
X147118000Y-130222000D01*
G37*
G36*
X165660000Y-130222000D02*
X162660000Y-130222000D01*
X162660000Y-129112000D01*
X165660000Y-129112000D01*
X165660000Y-130222000D01*
X165660000Y-130222000D01*
G37*
G36*
X56022000Y-129448000D02*
X54722000Y-129448000D01*
X54722000Y-128748000D01*
X56022000Y-128748000D01*
X56022000Y-129448000D01*
X56022000Y-129448000D01*
G37*
G36*
X205305000Y-127876000D02*
X204905000Y-127876000D01*
X204905000Y-127276000D01*
X205305000Y-127276000D01*
X205305000Y-127876000D01*
X205305000Y-127876000D01*
G37*
G36*
X186763000Y-127876000D02*
X186363000Y-127876000D01*
X186363000Y-127276000D01*
X186763000Y-127276000D01*
X186763000Y-127876000D01*
X186763000Y-127876000D01*
G37*
G36*
X149679000Y-127749000D02*
X149279000Y-127749000D01*
X149279000Y-127149000D01*
X149679000Y-127149000D01*
X149679000Y-127749000D01*
X149679000Y-127749000D01*
G37*
G36*
X168221000Y-127749000D02*
X167821000Y-127749000D01*
X167821000Y-127149000D01*
X168221000Y-127149000D01*
X168221000Y-127749000D01*
X168221000Y-127749000D01*
G37*
G36*
X112468000Y-127749000D02*
X112068000Y-127749000D01*
X112068000Y-127149000D01*
X112468000Y-127149000D01*
X112468000Y-127749000D01*
X112468000Y-127749000D01*
G37*
G36*
X131010000Y-127749000D02*
X130610000Y-127749000D01*
X130610000Y-127149000D01*
X131010000Y-127149000D01*
X131010000Y-127749000D01*
X131010000Y-127749000D01*
G37*
G36*
X164303000Y-127703000D02*
X163103000Y-127703000D01*
X163103000Y-126803000D01*
X164303000Y-126803000D01*
X164303000Y-127703000D01*
X164303000Y-127703000D01*
G37*
G36*
X127092000Y-127703000D02*
X125892000Y-127703000D01*
X125892000Y-126803000D01*
X127092000Y-126803000D01*
X127092000Y-127703000D01*
X127092000Y-127703000D01*
G37*
G36*
X201387000Y-127703000D02*
X200187000Y-127703000D01*
X200187000Y-126803000D01*
X201387000Y-126803000D01*
X201387000Y-127703000D01*
X201387000Y-127703000D01*
G37*
G36*
X108550000Y-127703000D02*
X107350000Y-127703000D01*
X107350000Y-126803000D01*
X108550000Y-126803000D01*
X108550000Y-127703000D01*
X108550000Y-127703000D01*
G37*
G36*
X145761000Y-127703000D02*
X144561000Y-127703000D01*
X144561000Y-126803000D01*
X145761000Y-126803000D01*
X145761000Y-127703000D01*
X145761000Y-127703000D01*
G37*
G36*
X182718000Y-127703000D02*
X181518000Y-127703000D01*
X181518000Y-126803000D01*
X182718000Y-126803000D01*
X182718000Y-127703000D01*
X182718000Y-127703000D01*
G37*
G36*
X190388000Y-127284000D02*
X189088000Y-127284000D01*
X189088000Y-126584000D01*
X190388000Y-126584000D01*
X190388000Y-127284000D01*
X190388000Y-127284000D01*
G37*
G36*
X171846000Y-127284000D02*
X170546000Y-127284000D01*
X170546000Y-126584000D01*
X171846000Y-126584000D01*
X171846000Y-127284000D01*
X171846000Y-127284000D01*
G37*
G36*
X153304000Y-127284000D02*
X152004000Y-127284000D01*
X152004000Y-126584000D01*
X153304000Y-126584000D01*
X153304000Y-127284000D01*
X153304000Y-127284000D01*
G37*
G36*
X134635000Y-127284000D02*
X133335000Y-127284000D01*
X133335000Y-126584000D01*
X134635000Y-126584000D01*
X134635000Y-127284000D01*
X134635000Y-127284000D01*
G37*
G36*
X116093000Y-127284000D02*
X114793000Y-127284000D01*
X114793000Y-126584000D01*
X116093000Y-126584000D01*
X116093000Y-127284000D01*
X116093000Y-127284000D01*
G37*
G36*
X208930000Y-127284000D02*
X207630000Y-127284000D01*
X207630000Y-126584000D01*
X208930000Y-126584000D01*
X208930000Y-127284000D01*
X208930000Y-127284000D01*
G37*
G36*
X70905630Y-125400299D02*
X71065855Y-125448903D01*
X71213520Y-125527831D01*
X71342949Y-125634051D01*
X71449169Y-125763480D01*
X71528097Y-125911145D01*
X71576701Y-126071370D01*
X71593112Y-126238000D01*
X71576701Y-126404630D01*
X71528097Y-126564855D01*
X71449169Y-126712520D01*
X71342949Y-126841949D01*
X71213520Y-126948169D01*
X71065855Y-127027097D01*
X70905630Y-127075701D01*
X70780752Y-127088000D01*
X70697248Y-127088000D01*
X70572370Y-127075701D01*
X70412145Y-127027097D01*
X70264480Y-126948169D01*
X70135051Y-126841949D01*
X70028831Y-126712520D01*
X69949903Y-126564855D01*
X69901299Y-126404630D01*
X69884888Y-126238000D01*
X69901299Y-126071370D01*
X69949903Y-125911145D01*
X70028831Y-125763480D01*
X70135051Y-125634051D01*
X70264480Y-125527831D01*
X70412145Y-125448903D01*
X70572370Y-125400299D01*
X70697248Y-125388000D01*
X70780752Y-125388000D01*
X70905630Y-125400299D01*
X70905630Y-125400299D01*
G37*
G36*
X55665630Y-125400299D02*
X55825855Y-125448903D01*
X55973520Y-125527831D01*
X56102949Y-125634051D01*
X56209169Y-125763480D01*
X56288097Y-125911145D01*
X56336701Y-126071370D01*
X56353112Y-126238000D01*
X56336701Y-126404630D01*
X56288097Y-126564855D01*
X56209169Y-126712520D01*
X56102949Y-126841949D01*
X55973520Y-126948169D01*
X55825855Y-127027097D01*
X55665630Y-127075701D01*
X55540752Y-127088000D01*
X55457248Y-127088000D01*
X55332370Y-127075701D01*
X55172145Y-127027097D01*
X55024480Y-126948169D01*
X54895051Y-126841949D01*
X54788831Y-126712520D01*
X54709903Y-126564855D01*
X54661299Y-126404630D01*
X54644888Y-126238000D01*
X54661299Y-126071370D01*
X54709903Y-125911145D01*
X54788831Y-125763480D01*
X54895051Y-125634051D01*
X55024480Y-125527831D01*
X55172145Y-125448903D01*
X55332370Y-125400299D01*
X55457248Y-125388000D01*
X55540752Y-125388000D01*
X55665630Y-125400299D01*
X55665630Y-125400299D01*
G37*
G36*
X58205630Y-125400299D02*
X58365855Y-125448903D01*
X58513520Y-125527831D01*
X58642949Y-125634051D01*
X58749169Y-125763480D01*
X58828097Y-125911145D01*
X58876701Y-126071370D01*
X58893112Y-126238000D01*
X58876701Y-126404630D01*
X58828097Y-126564855D01*
X58749169Y-126712520D01*
X58642949Y-126841949D01*
X58513520Y-126948169D01*
X58365855Y-127027097D01*
X58205630Y-127075701D01*
X58080752Y-127088000D01*
X57997248Y-127088000D01*
X57872370Y-127075701D01*
X57712145Y-127027097D01*
X57564480Y-126948169D01*
X57435051Y-126841949D01*
X57328831Y-126712520D01*
X57249903Y-126564855D01*
X57201299Y-126404630D01*
X57184888Y-126238000D01*
X57201299Y-126071370D01*
X57249903Y-125911145D01*
X57328831Y-125763480D01*
X57435051Y-125634051D01*
X57564480Y-125527831D01*
X57712145Y-125448903D01*
X57872370Y-125400299D01*
X57997248Y-125388000D01*
X58080752Y-125388000D01*
X58205630Y-125400299D01*
X58205630Y-125400299D01*
G37*
G36*
X63285630Y-125400299D02*
X63445855Y-125448903D01*
X63593520Y-125527831D01*
X63722949Y-125634051D01*
X63829169Y-125763480D01*
X63908097Y-125911145D01*
X63956701Y-126071370D01*
X63973112Y-126238000D01*
X63956701Y-126404630D01*
X63908097Y-126564855D01*
X63829169Y-126712520D01*
X63722949Y-126841949D01*
X63593520Y-126948169D01*
X63445855Y-127027097D01*
X63285630Y-127075701D01*
X63160752Y-127088000D01*
X63077248Y-127088000D01*
X62952370Y-127075701D01*
X62792145Y-127027097D01*
X62644480Y-126948169D01*
X62515051Y-126841949D01*
X62408831Y-126712520D01*
X62329903Y-126564855D01*
X62281299Y-126404630D01*
X62264888Y-126238000D01*
X62281299Y-126071370D01*
X62329903Y-125911145D01*
X62408831Y-125763480D01*
X62515051Y-125634051D01*
X62644480Y-125527831D01*
X62792145Y-125448903D01*
X62952370Y-125400299D01*
X63077248Y-125388000D01*
X63160752Y-125388000D01*
X63285630Y-125400299D01*
X63285630Y-125400299D01*
G37*
G36*
X65825630Y-125400299D02*
X65985855Y-125448903D01*
X66133520Y-125527831D01*
X66262949Y-125634051D01*
X66369169Y-125763480D01*
X66448097Y-125911145D01*
X66496701Y-126071370D01*
X66513112Y-126238000D01*
X66496701Y-126404630D01*
X66448097Y-126564855D01*
X66369169Y-126712520D01*
X66262949Y-126841949D01*
X66133520Y-126948169D01*
X65985855Y-127027097D01*
X65825630Y-127075701D01*
X65700752Y-127088000D01*
X65617248Y-127088000D01*
X65492370Y-127075701D01*
X65332145Y-127027097D01*
X65184480Y-126948169D01*
X65055051Y-126841949D01*
X64948831Y-126712520D01*
X64869903Y-126564855D01*
X64821299Y-126404630D01*
X64804888Y-126238000D01*
X64821299Y-126071370D01*
X64869903Y-125911145D01*
X64948831Y-125763480D01*
X65055051Y-125634051D01*
X65184480Y-125527831D01*
X65332145Y-125448903D01*
X65492370Y-125400299D01*
X65617248Y-125388000D01*
X65700752Y-125388000D01*
X65825630Y-125400299D01*
X65825630Y-125400299D01*
G37*
G36*
X68365630Y-125400299D02*
X68525855Y-125448903D01*
X68673520Y-125527831D01*
X68802949Y-125634051D01*
X68909169Y-125763480D01*
X68988097Y-125911145D01*
X69036701Y-126071370D01*
X69053112Y-126238000D01*
X69036701Y-126404630D01*
X68988097Y-126564855D01*
X68909169Y-126712520D01*
X68802949Y-126841949D01*
X68673520Y-126948169D01*
X68525855Y-127027097D01*
X68365630Y-127075701D01*
X68240752Y-127088000D01*
X68157248Y-127088000D01*
X68032370Y-127075701D01*
X67872145Y-127027097D01*
X67724480Y-126948169D01*
X67595051Y-126841949D01*
X67488831Y-126712520D01*
X67409903Y-126564855D01*
X67361299Y-126404630D01*
X67344888Y-126238000D01*
X67361299Y-126071370D01*
X67409903Y-125911145D01*
X67488831Y-125763480D01*
X67595051Y-125634051D01*
X67724480Y-125527831D01*
X67872145Y-125448903D01*
X68032370Y-125400299D01*
X68157248Y-125388000D01*
X68240752Y-125388000D01*
X68365630Y-125400299D01*
X68365630Y-125400299D01*
G37*
G36*
X73445630Y-125400299D02*
X73605855Y-125448903D01*
X73753520Y-125527831D01*
X73882949Y-125634051D01*
X73989169Y-125763480D01*
X74068097Y-125911145D01*
X74116701Y-126071370D01*
X74133112Y-126238000D01*
X74116701Y-126404630D01*
X74068097Y-126564855D01*
X73989169Y-126712520D01*
X73882949Y-126841949D01*
X73753520Y-126948169D01*
X73605855Y-127027097D01*
X73445630Y-127075701D01*
X73320752Y-127088000D01*
X73237248Y-127088000D01*
X73112370Y-127075701D01*
X72952145Y-127027097D01*
X72804480Y-126948169D01*
X72675051Y-126841949D01*
X72568831Y-126712520D01*
X72489903Y-126564855D01*
X72441299Y-126404630D01*
X72424888Y-126238000D01*
X72441299Y-126071370D01*
X72489903Y-125911145D01*
X72568831Y-125763480D01*
X72675051Y-125634051D01*
X72804480Y-125527831D01*
X72952145Y-125448903D01*
X73112370Y-125400299D01*
X73237248Y-125388000D01*
X73320752Y-125388000D01*
X73445630Y-125400299D01*
X73445630Y-125400299D01*
G37*
G36*
X78525630Y-125400299D02*
X78685855Y-125448903D01*
X78833520Y-125527831D01*
X78962949Y-125634051D01*
X79069169Y-125763480D01*
X79148097Y-125911145D01*
X79196701Y-126071370D01*
X79213112Y-126238000D01*
X79196701Y-126404630D01*
X79148097Y-126564855D01*
X79069169Y-126712520D01*
X78962949Y-126841949D01*
X78833520Y-126948169D01*
X78685855Y-127027097D01*
X78525630Y-127075701D01*
X78400752Y-127088000D01*
X78317248Y-127088000D01*
X78192370Y-127075701D01*
X78032145Y-127027097D01*
X77884480Y-126948169D01*
X77755051Y-126841949D01*
X77648831Y-126712520D01*
X77569903Y-126564855D01*
X77521299Y-126404630D01*
X77504888Y-126238000D01*
X77521299Y-126071370D01*
X77569903Y-125911145D01*
X77648831Y-125763480D01*
X77755051Y-125634051D01*
X77884480Y-125527831D01*
X78032145Y-125448903D01*
X78192370Y-125400299D01*
X78317248Y-125388000D01*
X78400752Y-125388000D01*
X78525630Y-125400299D01*
X78525630Y-125400299D01*
G37*
G36*
X88685630Y-125400299D02*
X88845855Y-125448903D01*
X88993520Y-125527831D01*
X89122949Y-125634051D01*
X89229169Y-125763480D01*
X89308097Y-125911145D01*
X89356701Y-126071370D01*
X89373112Y-126238000D01*
X89356701Y-126404630D01*
X89308097Y-126564855D01*
X89229169Y-126712520D01*
X89122949Y-126841949D01*
X88993520Y-126948169D01*
X88845855Y-127027097D01*
X88685630Y-127075701D01*
X88560752Y-127088000D01*
X88477248Y-127088000D01*
X88352370Y-127075701D01*
X88192145Y-127027097D01*
X88044480Y-126948169D01*
X87915051Y-126841949D01*
X87808831Y-126712520D01*
X87729903Y-126564855D01*
X87681299Y-126404630D01*
X87664888Y-126238000D01*
X87681299Y-126071370D01*
X87729903Y-125911145D01*
X87808831Y-125763480D01*
X87915051Y-125634051D01*
X88044480Y-125527831D01*
X88192145Y-125448903D01*
X88352370Y-125400299D01*
X88477248Y-125388000D01*
X88560752Y-125388000D01*
X88685630Y-125400299D01*
X88685630Y-125400299D01*
G37*
G36*
X81065630Y-125400299D02*
X81225855Y-125448903D01*
X81373520Y-125527831D01*
X81502949Y-125634051D01*
X81609169Y-125763480D01*
X81688097Y-125911145D01*
X81736701Y-126071370D01*
X81753112Y-126238000D01*
X81736701Y-126404630D01*
X81688097Y-126564855D01*
X81609169Y-126712520D01*
X81502949Y-126841949D01*
X81373520Y-126948169D01*
X81225855Y-127027097D01*
X81065630Y-127075701D01*
X80940752Y-127088000D01*
X80857248Y-127088000D01*
X80732370Y-127075701D01*
X80572145Y-127027097D01*
X80424480Y-126948169D01*
X80295051Y-126841949D01*
X80188831Y-126712520D01*
X80109903Y-126564855D01*
X80061299Y-126404630D01*
X80044888Y-126238000D01*
X80061299Y-126071370D01*
X80109903Y-125911145D01*
X80188831Y-125763480D01*
X80295051Y-125634051D01*
X80424480Y-125527831D01*
X80572145Y-125448903D01*
X80732370Y-125400299D01*
X80857248Y-125388000D01*
X80940752Y-125388000D01*
X81065630Y-125400299D01*
X81065630Y-125400299D01*
G37*
G36*
X53809000Y-127088000D02*
X52109000Y-127088000D01*
X52109000Y-125388000D01*
X53809000Y-125388000D01*
X53809000Y-127088000D01*
X53809000Y-127088000D01*
G37*
G36*
X83605630Y-125400299D02*
X83765855Y-125448903D01*
X83913520Y-125527831D01*
X84042949Y-125634051D01*
X84149169Y-125763480D01*
X84228097Y-125911145D01*
X84276701Y-126071370D01*
X84293112Y-126238000D01*
X84276701Y-126404630D01*
X84228097Y-126564855D01*
X84149169Y-126712520D01*
X84042949Y-126841949D01*
X83913520Y-126948169D01*
X83765855Y-127027097D01*
X83605630Y-127075701D01*
X83480752Y-127088000D01*
X83397248Y-127088000D01*
X83272370Y-127075701D01*
X83112145Y-127027097D01*
X82964480Y-126948169D01*
X82835051Y-126841949D01*
X82728831Y-126712520D01*
X82649903Y-126564855D01*
X82601299Y-126404630D01*
X82584888Y-126238000D01*
X82601299Y-126071370D01*
X82649903Y-125911145D01*
X82728831Y-125763480D01*
X82835051Y-125634051D01*
X82964480Y-125527831D01*
X83112145Y-125448903D01*
X83272370Y-125400299D01*
X83397248Y-125388000D01*
X83480752Y-125388000D01*
X83605630Y-125400299D01*
X83605630Y-125400299D01*
G37*
G36*
X86145630Y-125400299D02*
X86305855Y-125448903D01*
X86453520Y-125527831D01*
X86582949Y-125634051D01*
X86689169Y-125763480D01*
X86768097Y-125911145D01*
X86816701Y-126071370D01*
X86833112Y-126238000D01*
X86816701Y-126404630D01*
X86768097Y-126564855D01*
X86689169Y-126712520D01*
X86582949Y-126841949D01*
X86453520Y-126948169D01*
X86305855Y-127027097D01*
X86145630Y-127075701D01*
X86020752Y-127088000D01*
X85937248Y-127088000D01*
X85812370Y-127075701D01*
X85652145Y-127027097D01*
X85504480Y-126948169D01*
X85375051Y-126841949D01*
X85268831Y-126712520D01*
X85189903Y-126564855D01*
X85141299Y-126404630D01*
X85124888Y-126238000D01*
X85141299Y-126071370D01*
X85189903Y-125911145D01*
X85268831Y-125763480D01*
X85375051Y-125634051D01*
X85504480Y-125527831D01*
X85652145Y-125448903D01*
X85812370Y-125400299D01*
X85937248Y-125388000D01*
X86020752Y-125388000D01*
X86145630Y-125400299D01*
X86145630Y-125400299D01*
G37*
G36*
X60745630Y-125400299D02*
X60905855Y-125448903D01*
X61053520Y-125527831D01*
X61182949Y-125634051D01*
X61289169Y-125763480D01*
X61368097Y-125911145D01*
X61416701Y-126071370D01*
X61433112Y-126238000D01*
X61416701Y-126404630D01*
X61368097Y-126564855D01*
X61289169Y-126712520D01*
X61182949Y-126841949D01*
X61053520Y-126948169D01*
X60905855Y-127027097D01*
X60745630Y-127075701D01*
X60620752Y-127088000D01*
X60537248Y-127088000D01*
X60412370Y-127075701D01*
X60252145Y-127027097D01*
X60104480Y-126948169D01*
X59975051Y-126841949D01*
X59868831Y-126712520D01*
X59789903Y-126564855D01*
X59741299Y-126404630D01*
X59724888Y-126238000D01*
X59741299Y-126071370D01*
X59789903Y-125911145D01*
X59868831Y-125763480D01*
X59975051Y-125634051D01*
X60104480Y-125527831D01*
X60252145Y-125448903D01*
X60412370Y-125400299D01*
X60537248Y-125388000D01*
X60620752Y-125388000D01*
X60745630Y-125400299D01*
X60745630Y-125400299D01*
G37*
G36*
X75985630Y-125400299D02*
X76145855Y-125448903D01*
X76293520Y-125527831D01*
X76422949Y-125634051D01*
X76529169Y-125763480D01*
X76608097Y-125911145D01*
X76656701Y-126071370D01*
X76673112Y-126238000D01*
X76656701Y-126404630D01*
X76608097Y-126564855D01*
X76529169Y-126712520D01*
X76422949Y-126841949D01*
X76293520Y-126948169D01*
X76145855Y-127027097D01*
X75985630Y-127075701D01*
X75860752Y-127088000D01*
X75777248Y-127088000D01*
X75652370Y-127075701D01*
X75492145Y-127027097D01*
X75344480Y-126948169D01*
X75215051Y-126841949D01*
X75108831Y-126712520D01*
X75029903Y-126564855D01*
X74981299Y-126404630D01*
X74964888Y-126238000D01*
X74981299Y-126071370D01*
X75029903Y-125911145D01*
X75108831Y-125763480D01*
X75215051Y-125634051D01*
X75344480Y-125527831D01*
X75492145Y-125448903D01*
X75652370Y-125400299D01*
X75777248Y-125388000D01*
X75860752Y-125388000D01*
X75985630Y-125400299D01*
X75985630Y-125400299D01*
G37*
G36*
X204655000Y-125776000D02*
X204255000Y-125776000D01*
X204255000Y-125176000D01*
X204655000Y-125176000D01*
X204655000Y-125776000D01*
X204655000Y-125776000D01*
G37*
G36*
X186113000Y-125776000D02*
X185713000Y-125776000D01*
X185713000Y-125176000D01*
X186113000Y-125176000D01*
X186113000Y-125776000D01*
X186113000Y-125776000D01*
G37*
G36*
X187413000Y-125776000D02*
X187013000Y-125776000D01*
X187013000Y-125176000D01*
X187413000Y-125176000D01*
X187413000Y-125776000D01*
X187413000Y-125776000D01*
G37*
G36*
X205955000Y-125776000D02*
X205555000Y-125776000D01*
X205555000Y-125176000D01*
X205955000Y-125176000D01*
X205955000Y-125776000D01*
X205955000Y-125776000D01*
G37*
G36*
X150329000Y-125649000D02*
X149929000Y-125649000D01*
X149929000Y-125049000D01*
X150329000Y-125049000D01*
X150329000Y-125649000D01*
X150329000Y-125649000D01*
G37*
G36*
X149029000Y-125649000D02*
X148629000Y-125649000D01*
X148629000Y-125049000D01*
X149029000Y-125049000D01*
X149029000Y-125649000D01*
X149029000Y-125649000D01*
G37*
G36*
X167571000Y-125649000D02*
X167171000Y-125649000D01*
X167171000Y-125049000D01*
X167571000Y-125049000D01*
X167571000Y-125649000D01*
X167571000Y-125649000D01*
G37*
G36*
X131660000Y-125649000D02*
X131260000Y-125649000D01*
X131260000Y-125049000D01*
X131660000Y-125049000D01*
X131660000Y-125649000D01*
X131660000Y-125649000D01*
G37*
G36*
X130360000Y-125649000D02*
X129960000Y-125649000D01*
X129960000Y-125049000D01*
X130360000Y-125049000D01*
X130360000Y-125649000D01*
X130360000Y-125649000D01*
G37*
G36*
X113118000Y-125649000D02*
X112718000Y-125649000D01*
X112718000Y-125049000D01*
X113118000Y-125049000D01*
X113118000Y-125649000D01*
X113118000Y-125649000D01*
G37*
G36*
X111818000Y-125649000D02*
X111418000Y-125649000D01*
X111418000Y-125049000D01*
X111818000Y-125049000D01*
X111818000Y-125649000D01*
X111818000Y-125649000D01*
G37*
G36*
X168871000Y-125649000D02*
X168471000Y-125649000D01*
X168471000Y-125049000D01*
X168871000Y-125049000D01*
X168871000Y-125649000D01*
X168871000Y-125649000D01*
G37*
G36*
X171846000Y-125384000D02*
X170546000Y-125384000D01*
X170546000Y-124684000D01*
X171846000Y-124684000D01*
X171846000Y-125384000D01*
X171846000Y-125384000D01*
G37*
G36*
X153304000Y-125384000D02*
X152004000Y-125384000D01*
X152004000Y-124684000D01*
X153304000Y-124684000D01*
X153304000Y-125384000D01*
X153304000Y-125384000D01*
G37*
G36*
X208930000Y-125384000D02*
X207630000Y-125384000D01*
X207630000Y-124684000D01*
X208930000Y-124684000D01*
X208930000Y-125384000D01*
X208930000Y-125384000D01*
G37*
G36*
X134635000Y-125384000D02*
X133335000Y-125384000D01*
X133335000Y-124684000D01*
X134635000Y-124684000D01*
X134635000Y-125384000D01*
X134635000Y-125384000D01*
G37*
G36*
X116093000Y-125384000D02*
X114793000Y-125384000D01*
X114793000Y-124684000D01*
X116093000Y-124684000D01*
X116093000Y-125384000D01*
X116093000Y-125384000D01*
G37*
G36*
X190388000Y-125384000D02*
X189088000Y-125384000D01*
X189088000Y-124684000D01*
X190388000Y-124684000D01*
X190388000Y-125384000D01*
X190388000Y-125384000D01*
G37*
G36*
X164303000Y-124403000D02*
X163103000Y-124403000D01*
X163103000Y-123503000D01*
X164303000Y-123503000D01*
X164303000Y-124403000D01*
X164303000Y-124403000D01*
G37*
G36*
X145761000Y-124403000D02*
X144561000Y-124403000D01*
X144561000Y-123503000D01*
X145761000Y-123503000D01*
X145761000Y-124403000D01*
X145761000Y-124403000D01*
G37*
G36*
X201387000Y-124403000D02*
X200187000Y-124403000D01*
X200187000Y-123503000D01*
X201387000Y-123503000D01*
X201387000Y-124403000D01*
X201387000Y-124403000D01*
G37*
G36*
X182718000Y-124403000D02*
X181518000Y-124403000D01*
X181518000Y-123503000D01*
X182718000Y-123503000D01*
X182718000Y-124403000D01*
X182718000Y-124403000D01*
G37*
G36*
X127092000Y-124403000D02*
X125892000Y-124403000D01*
X125892000Y-123503000D01*
X127092000Y-123503000D01*
X127092000Y-124403000D01*
X127092000Y-124403000D01*
G37*
G36*
X108550000Y-124403000D02*
X107350000Y-124403000D01*
X107350000Y-123503000D01*
X108550000Y-123503000D01*
X108550000Y-124403000D01*
X108550000Y-124403000D01*
G37*
G36*
X168691000Y-123586000D02*
X167991000Y-123586000D01*
X167991000Y-122286000D01*
X168691000Y-122286000D01*
X168691000Y-123586000D01*
X168691000Y-123586000D01*
G37*
G36*
X189133000Y-123586000D02*
X188433000Y-123586000D01*
X188433000Y-122286000D01*
X189133000Y-122286000D01*
X189133000Y-123586000D01*
X189133000Y-123586000D01*
G37*
G36*
X187233000Y-123586000D02*
X186533000Y-123586000D01*
X186533000Y-122286000D01*
X187233000Y-122286000D01*
X187233000Y-123586000D01*
X187233000Y-123586000D01*
G37*
G36*
X170591000Y-123586000D02*
X169891000Y-123586000D01*
X169891000Y-122286000D01*
X170591000Y-122286000D01*
X170591000Y-123586000D01*
X170591000Y-123586000D01*
G37*
G36*
X152049000Y-123586000D02*
X151349000Y-123586000D01*
X151349000Y-122286000D01*
X152049000Y-122286000D01*
X152049000Y-123586000D01*
X152049000Y-123586000D01*
G37*
G36*
X207675000Y-123586000D02*
X206975000Y-123586000D01*
X206975000Y-122286000D01*
X207675000Y-122286000D01*
X207675000Y-123586000D01*
X207675000Y-123586000D01*
G37*
G36*
X114838000Y-123586000D02*
X114138000Y-123586000D01*
X114138000Y-122286000D01*
X114838000Y-122286000D01*
X114838000Y-123586000D01*
X114838000Y-123586000D01*
G37*
G36*
X131480000Y-123586000D02*
X130780000Y-123586000D01*
X130780000Y-122286000D01*
X131480000Y-122286000D01*
X131480000Y-123586000D01*
X131480000Y-123586000D01*
G37*
G36*
X133380000Y-123586000D02*
X132680000Y-123586000D01*
X132680000Y-122286000D01*
X133380000Y-122286000D01*
X133380000Y-123586000D01*
X133380000Y-123586000D01*
G37*
G36*
X205775000Y-123586000D02*
X205075000Y-123586000D01*
X205075000Y-122286000D01*
X205775000Y-122286000D01*
X205775000Y-123586000D01*
X205775000Y-123586000D01*
G37*
G36*
X150149000Y-123586000D02*
X149449000Y-123586000D01*
X149449000Y-122286000D01*
X150149000Y-122286000D01*
X150149000Y-123586000D01*
X150149000Y-123586000D01*
G37*
G36*
X112938000Y-123586000D02*
X112238000Y-123586000D01*
X112238000Y-122286000D01*
X112938000Y-122286000D01*
X112938000Y-123586000D01*
X112938000Y-123586000D01*
G37*
G36*
X127142000Y-122331000D02*
X125842000Y-122331000D01*
X125842000Y-121631000D01*
X127142000Y-121631000D01*
X127142000Y-122331000D01*
X127142000Y-122331000D01*
G37*
G36*
X108600000Y-122331000D02*
X107300000Y-122331000D01*
X107300000Y-121631000D01*
X108600000Y-121631000D01*
X108600000Y-122331000D01*
X108600000Y-122331000D01*
G37*
G36*
X164353000Y-122331000D02*
X163053000Y-122331000D01*
X163053000Y-121631000D01*
X164353000Y-121631000D01*
X164353000Y-122331000D01*
X164353000Y-122331000D01*
G37*
G36*
X145811000Y-122331000D02*
X144511000Y-122331000D01*
X144511000Y-121631000D01*
X145811000Y-121631000D01*
X145811000Y-122331000D01*
X145811000Y-122331000D01*
G37*
G36*
X201437000Y-122331000D02*
X200137000Y-122331000D01*
X200137000Y-121631000D01*
X201437000Y-121631000D01*
X201437000Y-122331000D01*
X201437000Y-122331000D01*
G37*
G36*
X182768000Y-122331000D02*
X181468000Y-122331000D01*
X181468000Y-121631000D01*
X182768000Y-121631000D01*
X182768000Y-122331000D01*
X182768000Y-122331000D01*
G37*
G36*
X182768000Y-120431000D02*
X181468000Y-120431000D01*
X181468000Y-119731000D01*
X182768000Y-119731000D01*
X182768000Y-120431000D01*
X182768000Y-120431000D01*
G37*
G36*
X164353000Y-120431000D02*
X163053000Y-120431000D01*
X163053000Y-119731000D01*
X164353000Y-119731000D01*
X164353000Y-120431000D01*
X164353000Y-120431000D01*
G37*
G36*
X108600000Y-120431000D02*
X107300000Y-120431000D01*
X107300000Y-119731000D01*
X108600000Y-119731000D01*
X108600000Y-120431000D01*
X108600000Y-120431000D01*
G37*
G36*
X201437000Y-120431000D02*
X200137000Y-120431000D01*
X200137000Y-119731000D01*
X201437000Y-119731000D01*
X201437000Y-120431000D01*
X201437000Y-120431000D01*
G37*
G36*
X145811000Y-120431000D02*
X144511000Y-120431000D01*
X144511000Y-119731000D01*
X145811000Y-119731000D01*
X145811000Y-120431000D01*
X145811000Y-120431000D01*
G37*
G36*
X127142000Y-120431000D02*
X125842000Y-120431000D01*
X125842000Y-119731000D01*
X127142000Y-119731000D01*
X127142000Y-120431000D01*
X127142000Y-120431000D01*
G37*
G36*
X171207612Y-112526537D02*
X171435096Y-112620764D01*
X171639831Y-112757564D01*
X171813936Y-112931669D01*
X171950736Y-113136404D01*
X172044963Y-113363888D01*
X172093000Y-113605385D01*
X172093000Y-113851615D01*
X172044963Y-114093112D01*
X171950736Y-114320596D01*
X171813936Y-114525331D01*
X171639831Y-114699436D01*
X171435096Y-114836236D01*
X171207612Y-114930463D01*
X170966115Y-114978500D01*
X170719885Y-114978500D01*
X170478388Y-114930463D01*
X170250904Y-114836236D01*
X170046169Y-114699436D01*
X169872064Y-114525331D01*
X169735264Y-114320596D01*
X169641037Y-114093112D01*
X169593000Y-113851615D01*
X169593000Y-113605385D01*
X169641037Y-113363888D01*
X169735264Y-113136404D01*
X169872064Y-112931669D01*
X170046169Y-112757564D01*
X170250904Y-112620764D01*
X170478388Y-112526537D01*
X170719885Y-112478500D01*
X170966115Y-112478500D01*
X171207612Y-112526537D01*
X171207612Y-112526537D01*
G37*
G36*
X176207612Y-112526537D02*
X176435096Y-112620764D01*
X176639831Y-112757564D01*
X176813936Y-112931669D01*
X176950736Y-113136404D01*
X177044963Y-113363888D01*
X177093000Y-113605385D01*
X177093000Y-113851615D01*
X177044963Y-114093112D01*
X176950736Y-114320596D01*
X176813936Y-114525331D01*
X176639831Y-114699436D01*
X176435096Y-114836236D01*
X176207612Y-114930463D01*
X175966115Y-114978500D01*
X175719885Y-114978500D01*
X175478388Y-114930463D01*
X175250904Y-114836236D01*
X175046169Y-114699436D01*
X174872064Y-114525331D01*
X174735264Y-114320596D01*
X174641037Y-114093112D01*
X174593000Y-113851615D01*
X174593000Y-113605385D01*
X174641037Y-113363888D01*
X174735264Y-113136404D01*
X174872064Y-112931669D01*
X175046169Y-112757564D01*
X175250904Y-112620764D01*
X175478388Y-112526537D01*
X175719885Y-112478500D01*
X175966115Y-112478500D01*
X176207612Y-112526537D01*
X176207612Y-112526537D01*
G37*
G36*
X181207612Y-112526537D02*
X181435096Y-112620764D01*
X181639831Y-112757564D01*
X181813936Y-112931669D01*
X181950736Y-113136404D01*
X182044963Y-113363888D01*
X182093000Y-113605385D01*
X182093000Y-113851615D01*
X182044963Y-114093112D01*
X181950736Y-114320596D01*
X181813936Y-114525331D01*
X181639831Y-114699436D01*
X181435096Y-114836236D01*
X181207612Y-114930463D01*
X180966115Y-114978500D01*
X180719885Y-114978500D01*
X180478388Y-114930463D01*
X180250904Y-114836236D01*
X180046169Y-114699436D01*
X179872064Y-114525331D01*
X179735264Y-114320596D01*
X179641037Y-114093112D01*
X179593000Y-113851615D01*
X179593000Y-113605385D01*
X179641037Y-113363888D01*
X179735264Y-113136404D01*
X179872064Y-112931669D01*
X180046169Y-112757564D01*
X180250904Y-112620764D01*
X180478388Y-112526537D01*
X180719885Y-112478500D01*
X180966115Y-112478500D01*
X181207612Y-112526537D01*
X181207612Y-112526537D01*
G37*
G36*
X146207612Y-112526537D02*
X146435096Y-112620764D01*
X146639831Y-112757564D01*
X146813936Y-112931669D01*
X146950736Y-113136404D01*
X147044963Y-113363888D01*
X147093000Y-113605385D01*
X147093000Y-113851615D01*
X147044963Y-114093112D01*
X146950736Y-114320596D01*
X146813936Y-114525331D01*
X146639831Y-114699436D01*
X146435096Y-114836236D01*
X146207612Y-114930463D01*
X145966115Y-114978500D01*
X145719885Y-114978500D01*
X145478388Y-114930463D01*
X145250904Y-114836236D01*
X145046169Y-114699436D01*
X144872064Y-114525331D01*
X144735264Y-114320596D01*
X144641037Y-114093112D01*
X144593000Y-113851615D01*
X144593000Y-113605385D01*
X144641037Y-113363888D01*
X144735264Y-113136404D01*
X144872064Y-112931669D01*
X145046169Y-112757564D01*
X145250904Y-112620764D01*
X145478388Y-112526537D01*
X145719885Y-112478500D01*
X145966115Y-112478500D01*
X146207612Y-112526537D01*
X146207612Y-112526537D01*
G37*
G36*
X156207612Y-112526537D02*
X156435096Y-112620764D01*
X156639831Y-112757564D01*
X156813936Y-112931669D01*
X156950736Y-113136404D01*
X157044963Y-113363888D01*
X157093000Y-113605385D01*
X157093000Y-113851615D01*
X157044963Y-114093112D01*
X156950736Y-114320596D01*
X156813936Y-114525331D01*
X156639831Y-114699436D01*
X156435096Y-114836236D01*
X156207612Y-114930463D01*
X155966115Y-114978500D01*
X155719885Y-114978500D01*
X155478388Y-114930463D01*
X155250904Y-114836236D01*
X155046169Y-114699436D01*
X154872064Y-114525331D01*
X154735264Y-114320596D01*
X154641037Y-114093112D01*
X154593000Y-113851615D01*
X154593000Y-113605385D01*
X154641037Y-113363888D01*
X154735264Y-113136404D01*
X154872064Y-112931669D01*
X155046169Y-112757564D01*
X155250904Y-112620764D01*
X155478388Y-112526537D01*
X155719885Y-112478500D01*
X155966115Y-112478500D01*
X156207612Y-112526537D01*
X156207612Y-112526537D01*
G37*
G36*
X161207612Y-112526537D02*
X161435096Y-112620764D01*
X161639831Y-112757564D01*
X161813936Y-112931669D01*
X161950736Y-113136404D01*
X162044963Y-113363888D01*
X162093000Y-113605385D01*
X162093000Y-113851615D01*
X162044963Y-114093112D01*
X161950736Y-114320596D01*
X161813936Y-114525331D01*
X161639831Y-114699436D01*
X161435096Y-114836236D01*
X161207612Y-114930463D01*
X160966115Y-114978500D01*
X160719885Y-114978500D01*
X160478388Y-114930463D01*
X160250904Y-114836236D01*
X160046169Y-114699436D01*
X159872064Y-114525331D01*
X159735264Y-114320596D01*
X159641037Y-114093112D01*
X159593000Y-113851615D01*
X159593000Y-113605385D01*
X159641037Y-113363888D01*
X159735264Y-113136404D01*
X159872064Y-112931669D01*
X160046169Y-112757564D01*
X160250904Y-112620764D01*
X160478388Y-112526537D01*
X160719885Y-112478500D01*
X160966115Y-112478500D01*
X161207612Y-112526537D01*
X161207612Y-112526537D01*
G37*
G36*
X166207612Y-112526537D02*
X166435096Y-112620764D01*
X166639831Y-112757564D01*
X166813936Y-112931669D01*
X166950736Y-113136404D01*
X167044963Y-113363888D01*
X167093000Y-113605385D01*
X167093000Y-113851615D01*
X167044963Y-114093112D01*
X166950736Y-114320596D01*
X166813936Y-114525331D01*
X166639831Y-114699436D01*
X166435096Y-114836236D01*
X166207612Y-114930463D01*
X165966115Y-114978500D01*
X165719885Y-114978500D01*
X165478388Y-114930463D01*
X165250904Y-114836236D01*
X165046169Y-114699436D01*
X164872064Y-114525331D01*
X164735264Y-114320596D01*
X164641037Y-114093112D01*
X164593000Y-113851615D01*
X164593000Y-113605385D01*
X164641037Y-113363888D01*
X164735264Y-113136404D01*
X164872064Y-112931669D01*
X165046169Y-112757564D01*
X165250904Y-112620764D01*
X165478388Y-112526537D01*
X165719885Y-112478500D01*
X165966115Y-112478500D01*
X166207612Y-112526537D01*
X166207612Y-112526537D01*
G37*
G36*
X141207612Y-112526537D02*
X141435096Y-112620764D01*
X141639831Y-112757564D01*
X141813936Y-112931669D01*
X141950736Y-113136404D01*
X142044963Y-113363888D01*
X142093000Y-113605385D01*
X142093000Y-113851615D01*
X142044963Y-114093112D01*
X141950736Y-114320596D01*
X141813936Y-114525331D01*
X141639831Y-114699436D01*
X141435096Y-114836236D01*
X141207612Y-114930463D01*
X140966115Y-114978500D01*
X140719885Y-114978500D01*
X140478388Y-114930463D01*
X140250904Y-114836236D01*
X140046169Y-114699436D01*
X139872064Y-114525331D01*
X139735264Y-114320596D01*
X139641037Y-114093112D01*
X139593000Y-113851615D01*
X139593000Y-113605385D01*
X139641037Y-113363888D01*
X139735264Y-113136404D01*
X139872064Y-112931669D01*
X140046169Y-112757564D01*
X140250904Y-112620764D01*
X140478388Y-112526537D01*
X140719885Y-112478500D01*
X140966115Y-112478500D01*
X141207612Y-112526537D01*
X141207612Y-112526537D01*
G37*
G36*
X151207612Y-112526537D02*
X151435096Y-112620764D01*
X151639831Y-112757564D01*
X151813936Y-112931669D01*
X151950736Y-113136404D01*
X152044963Y-113363888D01*
X152093000Y-113605385D01*
X152093000Y-113851615D01*
X152044963Y-114093112D01*
X151950736Y-114320596D01*
X151813936Y-114525331D01*
X151639831Y-114699436D01*
X151435096Y-114836236D01*
X151207612Y-114930463D01*
X150966115Y-114978500D01*
X150719885Y-114978500D01*
X150478388Y-114930463D01*
X150250904Y-114836236D01*
X150046169Y-114699436D01*
X149872064Y-114525331D01*
X149735264Y-114320596D01*
X149641037Y-114093112D01*
X149593000Y-113851615D01*
X149593000Y-113605385D01*
X149641037Y-113363888D01*
X149735264Y-113136404D01*
X149872064Y-112931669D01*
X150046169Y-112757564D01*
X150250904Y-112620764D01*
X150478388Y-112526537D01*
X150719885Y-112478500D01*
X150966115Y-112478500D01*
X151207612Y-112526537D01*
X151207612Y-112526537D01*
G37*
G36*
X197475000Y-111990000D02*
X196225000Y-111990000D01*
X196225000Y-110990000D01*
X197475000Y-110990000D01*
X197475000Y-111990000D01*
X197475000Y-111990000D01*
G37*
G36*
X197475000Y-109990000D02*
X196225000Y-109990000D01*
X196225000Y-108990000D01*
X197475000Y-108990000D01*
X197475000Y-109990000D01*
X197475000Y-109990000D01*
G37*
G36*
X203928926Y-106071029D02*
X203994356Y-106084044D01*
X204110132Y-106132000D01*
X204179256Y-106160632D01*
X204345665Y-106271823D01*
X204487177Y-106413335D01*
X204598368Y-106579744D01*
X204674956Y-106764645D01*
X204714000Y-106960931D01*
X204714000Y-107161069D01*
X204674956Y-107357355D01*
X204598368Y-107542256D01*
X204487177Y-107708665D01*
X204345665Y-107850177D01*
X204345662Y-107850179D01*
X204179256Y-107961368D01*
X203994356Y-108037956D01*
X203928926Y-108050971D01*
X203798069Y-108077000D01*
X203597931Y-108077000D01*
X203467074Y-108050971D01*
X203401644Y-108037956D01*
X203216744Y-107961368D01*
X203050338Y-107850179D01*
X203050335Y-107850177D01*
X202908823Y-107708665D01*
X202797632Y-107542256D01*
X202721044Y-107357355D01*
X202682000Y-107161069D01*
X202682000Y-106960931D01*
X202721044Y-106764645D01*
X202797632Y-106579744D01*
X202908823Y-106413335D01*
X203050335Y-106271823D01*
X203216744Y-106160632D01*
X203285868Y-106132000D01*
X203401644Y-106084044D01*
X203467074Y-106071029D01*
X203597931Y-106045000D01*
X203798069Y-106045000D01*
X203928926Y-106071029D01*
X203928926Y-106071029D01*
G37*
G36*
X206478926Y-106071029D02*
X206544356Y-106084044D01*
X206660132Y-106132000D01*
X206729256Y-106160632D01*
X206895665Y-106271823D01*
X207037177Y-106413335D01*
X207148368Y-106579744D01*
X207224956Y-106764645D01*
X207264000Y-106960931D01*
X207264000Y-107161069D01*
X207224956Y-107357355D01*
X207148368Y-107542256D01*
X207037177Y-107708665D01*
X206895665Y-107850177D01*
X206895662Y-107850179D01*
X206729256Y-107961368D01*
X206544356Y-108037956D01*
X206478926Y-108050971D01*
X206348069Y-108077000D01*
X206147931Y-108077000D01*
X206017074Y-108050971D01*
X205951644Y-108037956D01*
X205766744Y-107961368D01*
X205600338Y-107850179D01*
X205600335Y-107850177D01*
X205458823Y-107708665D01*
X205347632Y-107542256D01*
X205271044Y-107357355D01*
X205232000Y-107161069D01*
X205232000Y-106960931D01*
X205271044Y-106764645D01*
X205347632Y-106579744D01*
X205458823Y-106413335D01*
X205600335Y-106271823D01*
X205766744Y-106160632D01*
X205835868Y-106132000D01*
X205951644Y-106084044D01*
X206017074Y-106071029D01*
X206147931Y-106045000D01*
X206348069Y-106045000D01*
X206478926Y-106071029D01*
X206478926Y-106071029D01*
G37*
G36*
X201378926Y-106071029D02*
X201444356Y-106084044D01*
X201560132Y-106132000D01*
X201629256Y-106160632D01*
X201795665Y-106271823D01*
X201937177Y-106413335D01*
X202048368Y-106579744D01*
X202124956Y-106764645D01*
X202164000Y-106960931D01*
X202164000Y-107161069D01*
X202124956Y-107357355D01*
X202048368Y-107542256D01*
X201937177Y-107708665D01*
X201795665Y-107850177D01*
X201795662Y-107850179D01*
X201629256Y-107961368D01*
X201444356Y-108037956D01*
X201378926Y-108050971D01*
X201248069Y-108077000D01*
X201047931Y-108077000D01*
X200917074Y-108050971D01*
X200851644Y-108037956D01*
X200666744Y-107961368D01*
X200500338Y-107850179D01*
X200500335Y-107850177D01*
X200358823Y-107708665D01*
X200247632Y-107542256D01*
X200171044Y-107357355D01*
X200132000Y-107161069D01*
X200132000Y-106960931D01*
X200171044Y-106764645D01*
X200247632Y-106579744D01*
X200358823Y-106413335D01*
X200500335Y-106271823D01*
X200666744Y-106160632D01*
X200735868Y-106132000D01*
X200851644Y-106084044D01*
X200917074Y-106071029D01*
X201047931Y-106045000D01*
X201248069Y-106045000D01*
X201378926Y-106071029D01*
X201378926Y-106071029D01*
G37*
G36*
X191867000Y-107182000D02*
X189992000Y-107182000D01*
X189992000Y-106132000D01*
X191867000Y-106132000D01*
X191867000Y-107182000D01*
X191867000Y-107182000D01*
G37*
G36*
X197192000Y-107182000D02*
X195317000Y-107182000D01*
X195317000Y-106132000D01*
X197192000Y-106132000D01*
X197192000Y-107182000D01*
X197192000Y-107182000D01*
G37*
G36*
X191867000Y-104682000D02*
X189992000Y-104682000D01*
X189992000Y-103632000D01*
X191867000Y-103632000D01*
X191867000Y-104682000D01*
X191867000Y-104682000D01*
G37*
G36*
X197192000Y-104682000D02*
X195317000Y-104682000D01*
X195317000Y-103632000D01*
X197192000Y-103632000D01*
X197192000Y-104682000D01*
X197192000Y-104682000D01*
G37*
G36*
X170863770Y-102520372D02*
X170979689Y-102543429D01*
X171161678Y-102618811D01*
X171325463Y-102728249D01*
X171464751Y-102867537D01*
X171574189Y-103031322D01*
X171649571Y-103213311D01*
X171672628Y-103329230D01*
X171688000Y-103406507D01*
X171688000Y-103603493D01*
X171672628Y-103680770D01*
X171649571Y-103796689D01*
X171574189Y-103978678D01*
X171464751Y-104142463D01*
X171325463Y-104281751D01*
X171161678Y-104391189D01*
X170979689Y-104466571D01*
X170863770Y-104489628D01*
X170786493Y-104505000D01*
X170589507Y-104505000D01*
X170512230Y-104489628D01*
X170396311Y-104466571D01*
X170214322Y-104391189D01*
X170050537Y-104281751D01*
X169911249Y-104142463D01*
X169801811Y-103978678D01*
X169726429Y-103796689D01*
X169703372Y-103680770D01*
X169688000Y-103603493D01*
X169688000Y-103406507D01*
X169703372Y-103329230D01*
X169726429Y-103213311D01*
X169801811Y-103031322D01*
X169911249Y-102867537D01*
X170050537Y-102728249D01*
X170214322Y-102618811D01*
X170396311Y-102543429D01*
X170512230Y-102520372D01*
X170589507Y-102505000D01*
X170786493Y-102505000D01*
X170863770Y-102520372D01*
X170863770Y-102520372D01*
G37*
G36*
X122603770Y-102520372D02*
X122719689Y-102543429D01*
X122901678Y-102618811D01*
X123065463Y-102728249D01*
X123204751Y-102867537D01*
X123314189Y-103031322D01*
X123389571Y-103213311D01*
X123412628Y-103329230D01*
X123428000Y-103406507D01*
X123428000Y-103603493D01*
X123412628Y-103680770D01*
X123389571Y-103796689D01*
X123314189Y-103978678D01*
X123204751Y-104142463D01*
X123065463Y-104281751D01*
X122901678Y-104391189D01*
X122719689Y-104466571D01*
X122603770Y-104489628D01*
X122526493Y-104505000D01*
X122329507Y-104505000D01*
X122252230Y-104489628D01*
X122136311Y-104466571D01*
X121954322Y-104391189D01*
X121790537Y-104281751D01*
X121651249Y-104142463D01*
X121541811Y-103978678D01*
X121466429Y-103796689D01*
X121443372Y-103680770D01*
X121428000Y-103603493D01*
X121428000Y-103406507D01*
X121443372Y-103329230D01*
X121466429Y-103213311D01*
X121541811Y-103031322D01*
X121651249Y-102867537D01*
X121790537Y-102728249D01*
X121954322Y-102618811D01*
X122136311Y-102543429D01*
X122252230Y-102520372D01*
X122329507Y-102505000D01*
X122526493Y-102505000D01*
X122603770Y-102520372D01*
X122603770Y-102520372D01*
G37*
G36*
X127603770Y-102520372D02*
X127719689Y-102543429D01*
X127901678Y-102618811D01*
X128065463Y-102728249D01*
X128204751Y-102867537D01*
X128314189Y-103031322D01*
X128389571Y-103213311D01*
X128412628Y-103329230D01*
X128428000Y-103406507D01*
X128428000Y-103603493D01*
X128412628Y-103680770D01*
X128389571Y-103796689D01*
X128314189Y-103978678D01*
X128204751Y-104142463D01*
X128065463Y-104281751D01*
X127901678Y-104391189D01*
X127719689Y-104466571D01*
X127603770Y-104489628D01*
X127526493Y-104505000D01*
X127329507Y-104505000D01*
X127252230Y-104489628D01*
X127136311Y-104466571D01*
X126954322Y-104391189D01*
X126790537Y-104281751D01*
X126651249Y-104142463D01*
X126541811Y-103978678D01*
X126466429Y-103796689D01*
X126443372Y-103680770D01*
X126428000Y-103603493D01*
X126428000Y-103406507D01*
X126443372Y-103329230D01*
X126466429Y-103213311D01*
X126541811Y-103031322D01*
X126651249Y-102867537D01*
X126790537Y-102728249D01*
X126954322Y-102618811D01*
X127136311Y-102543429D01*
X127252230Y-102520372D01*
X127329507Y-102505000D01*
X127526493Y-102505000D01*
X127603770Y-102520372D01*
X127603770Y-102520372D01*
G37*
G36*
X147241770Y-102520372D02*
X147357689Y-102543429D01*
X147539678Y-102618811D01*
X147703463Y-102728249D01*
X147842751Y-102867537D01*
X147952189Y-103031322D01*
X148027571Y-103213311D01*
X148050628Y-103329230D01*
X148066000Y-103406507D01*
X148066000Y-103603493D01*
X148050628Y-103680770D01*
X148027571Y-103796689D01*
X147952189Y-103978678D01*
X147842751Y-104142463D01*
X147703463Y-104281751D01*
X147539678Y-104391189D01*
X147357689Y-104466571D01*
X147241770Y-104489628D01*
X147164493Y-104505000D01*
X146967507Y-104505000D01*
X146890230Y-104489628D01*
X146774311Y-104466571D01*
X146592322Y-104391189D01*
X146428537Y-104281751D01*
X146289249Y-104142463D01*
X146179811Y-103978678D01*
X146104429Y-103796689D01*
X146081372Y-103680770D01*
X146066000Y-103603493D01*
X146066000Y-103406507D01*
X146081372Y-103329230D01*
X146104429Y-103213311D01*
X146179811Y-103031322D01*
X146289249Y-102867537D01*
X146428537Y-102728249D01*
X146592322Y-102618811D01*
X146774311Y-102543429D01*
X146890230Y-102520372D01*
X146967507Y-102505000D01*
X147164493Y-102505000D01*
X147241770Y-102520372D01*
X147241770Y-102520372D01*
G37*
G36*
X152241770Y-102520372D02*
X152357689Y-102543429D01*
X152539678Y-102618811D01*
X152703463Y-102728249D01*
X152842751Y-102867537D01*
X152952189Y-103031322D01*
X153027571Y-103213311D01*
X153050628Y-103329230D01*
X153066000Y-103406507D01*
X153066000Y-103603493D01*
X153050628Y-103680770D01*
X153027571Y-103796689D01*
X152952189Y-103978678D01*
X152842751Y-104142463D01*
X152703463Y-104281751D01*
X152539678Y-104391189D01*
X152357689Y-104466571D01*
X152241770Y-104489628D01*
X152164493Y-104505000D01*
X151967507Y-104505000D01*
X151890230Y-104489628D01*
X151774311Y-104466571D01*
X151592322Y-104391189D01*
X151428537Y-104281751D01*
X151289249Y-104142463D01*
X151179811Y-103978678D01*
X151104429Y-103796689D01*
X151081372Y-103680770D01*
X151066000Y-103603493D01*
X151066000Y-103406507D01*
X151081372Y-103329230D01*
X151104429Y-103213311D01*
X151179811Y-103031322D01*
X151289249Y-102867537D01*
X151428537Y-102728249D01*
X151592322Y-102618811D01*
X151774311Y-102543429D01*
X151890230Y-102520372D01*
X151967507Y-102505000D01*
X152164493Y-102505000D01*
X152241770Y-102520372D01*
X152241770Y-102520372D01*
G37*
G36*
X175863770Y-102520372D02*
X175979689Y-102543429D01*
X176161678Y-102618811D01*
X176325463Y-102728249D01*
X176464751Y-102867537D01*
X176574189Y-103031322D01*
X176649571Y-103213311D01*
X176672628Y-103329230D01*
X176688000Y-103406507D01*
X176688000Y-103603493D01*
X176672628Y-103680770D01*
X176649571Y-103796689D01*
X176574189Y-103978678D01*
X176464751Y-104142463D01*
X176325463Y-104281751D01*
X176161678Y-104391189D01*
X175979689Y-104466571D01*
X175863770Y-104489628D01*
X175786493Y-104505000D01*
X175589507Y-104505000D01*
X175512230Y-104489628D01*
X175396311Y-104466571D01*
X175214322Y-104391189D01*
X175050537Y-104281751D01*
X174911249Y-104142463D01*
X174801811Y-103978678D01*
X174726429Y-103796689D01*
X174703372Y-103680770D01*
X174688000Y-103603493D01*
X174688000Y-103406507D01*
X174703372Y-103329230D01*
X174726429Y-103213311D01*
X174801811Y-103031322D01*
X174911249Y-102867537D01*
X175050537Y-102728249D01*
X175214322Y-102618811D01*
X175396311Y-102543429D01*
X175512230Y-102520372D01*
X175589507Y-102505000D01*
X175786493Y-102505000D01*
X175863770Y-102520372D01*
X175863770Y-102520372D01*
G37*
G36*
X118394000Y-104155000D02*
X117694000Y-104155000D01*
X117694000Y-102855000D01*
X118394000Y-102855000D01*
X118394000Y-104155000D01*
X118394000Y-104155000D01*
G37*
G36*
X166654000Y-104155000D02*
X165954000Y-104155000D01*
X165954000Y-102855000D01*
X166654000Y-102855000D01*
X166654000Y-104155000D01*
X166654000Y-104155000D01*
G37*
G36*
X164754000Y-104155000D02*
X164054000Y-104155000D01*
X164054000Y-102855000D01*
X164754000Y-102855000D01*
X164754000Y-104155000D01*
X164754000Y-104155000D01*
G37*
G36*
X142905000Y-104155000D02*
X142205000Y-104155000D01*
X142205000Y-102855000D01*
X142905000Y-102855000D01*
X142905000Y-104155000D01*
X142905000Y-104155000D01*
G37*
G36*
X141005000Y-104155000D02*
X140305000Y-104155000D01*
X140305000Y-102855000D01*
X141005000Y-102855000D01*
X141005000Y-104155000D01*
X141005000Y-104155000D01*
G37*
G36*
X116494000Y-104155000D02*
X115794000Y-104155000D01*
X115794000Y-102855000D01*
X116494000Y-102855000D01*
X116494000Y-104155000D01*
X116494000Y-104155000D01*
G37*
G36*
X60745630Y-100000299D02*
X60905855Y-100048903D01*
X61053520Y-100127831D01*
X61182949Y-100234051D01*
X61289169Y-100363480D01*
X61368097Y-100511145D01*
X61416701Y-100671370D01*
X61433112Y-100838000D01*
X61416701Y-101004630D01*
X61368097Y-101164855D01*
X61289169Y-101312520D01*
X61182949Y-101441949D01*
X61053520Y-101548169D01*
X60905855Y-101627097D01*
X60745630Y-101675701D01*
X60620752Y-101688000D01*
X60537248Y-101688000D01*
X60412370Y-101675701D01*
X60252145Y-101627097D01*
X60104480Y-101548169D01*
X59975051Y-101441949D01*
X59868831Y-101312520D01*
X59789903Y-101164855D01*
X59741299Y-101004630D01*
X59724888Y-100838000D01*
X59741299Y-100671370D01*
X59789903Y-100511145D01*
X59868831Y-100363480D01*
X59975051Y-100234051D01*
X60104480Y-100127831D01*
X60252145Y-100048903D01*
X60412370Y-100000299D01*
X60537248Y-99988000D01*
X60620752Y-99988000D01*
X60745630Y-100000299D01*
X60745630Y-100000299D01*
G37*
G36*
X78525630Y-100000299D02*
X78685855Y-100048903D01*
X78833520Y-100127831D01*
X78962949Y-100234051D01*
X79069169Y-100363480D01*
X79148097Y-100511145D01*
X79196701Y-100671370D01*
X79213112Y-100838000D01*
X79196701Y-101004630D01*
X79148097Y-101164855D01*
X79069169Y-101312520D01*
X78962949Y-101441949D01*
X78833520Y-101548169D01*
X78685855Y-101627097D01*
X78525630Y-101675701D01*
X78400752Y-101688000D01*
X78317248Y-101688000D01*
X78192370Y-101675701D01*
X78032145Y-101627097D01*
X77884480Y-101548169D01*
X77755051Y-101441949D01*
X77648831Y-101312520D01*
X77569903Y-101164855D01*
X77521299Y-101004630D01*
X77504888Y-100838000D01*
X77521299Y-100671370D01*
X77569903Y-100511145D01*
X77648831Y-100363480D01*
X77755051Y-100234051D01*
X77884480Y-100127831D01*
X78032145Y-100048903D01*
X78192370Y-100000299D01*
X78317248Y-99988000D01*
X78400752Y-99988000D01*
X78525630Y-100000299D01*
X78525630Y-100000299D01*
G37*
G36*
X75985630Y-100000299D02*
X76145855Y-100048903D01*
X76293520Y-100127831D01*
X76422949Y-100234051D01*
X76529169Y-100363480D01*
X76608097Y-100511145D01*
X76656701Y-100671370D01*
X76673112Y-100838000D01*
X76656701Y-101004630D01*
X76608097Y-101164855D01*
X76529169Y-101312520D01*
X76422949Y-101441949D01*
X76293520Y-101548169D01*
X76145855Y-101627097D01*
X75985630Y-101675701D01*
X75860752Y-101688000D01*
X75777248Y-101688000D01*
X75652370Y-101675701D01*
X75492145Y-101627097D01*
X75344480Y-101548169D01*
X75215051Y-101441949D01*
X75108831Y-101312520D01*
X75029903Y-101164855D01*
X74981299Y-101004630D01*
X74964888Y-100838000D01*
X74981299Y-100671370D01*
X75029903Y-100511145D01*
X75108831Y-100363480D01*
X75215051Y-100234051D01*
X75344480Y-100127831D01*
X75492145Y-100048903D01*
X75652370Y-100000299D01*
X75777248Y-99988000D01*
X75860752Y-99988000D01*
X75985630Y-100000299D01*
X75985630Y-100000299D01*
G37*
G36*
X73445630Y-100000299D02*
X73605855Y-100048903D01*
X73753520Y-100127831D01*
X73882949Y-100234051D01*
X73989169Y-100363480D01*
X74068097Y-100511145D01*
X74116701Y-100671370D01*
X74133112Y-100838000D01*
X74116701Y-101004630D01*
X74068097Y-101164855D01*
X73989169Y-101312520D01*
X73882949Y-101441949D01*
X73753520Y-101548169D01*
X73605855Y-101627097D01*
X73445630Y-101675701D01*
X73320752Y-101688000D01*
X73237248Y-101688000D01*
X73112370Y-101675701D01*
X72952145Y-101627097D01*
X72804480Y-101548169D01*
X72675051Y-101441949D01*
X72568831Y-101312520D01*
X72489903Y-101164855D01*
X72441299Y-101004630D01*
X72424888Y-100838000D01*
X72441299Y-100671370D01*
X72489903Y-100511145D01*
X72568831Y-100363480D01*
X72675051Y-100234051D01*
X72804480Y-100127831D01*
X72952145Y-100048903D01*
X73112370Y-100000299D01*
X73237248Y-99988000D01*
X73320752Y-99988000D01*
X73445630Y-100000299D01*
X73445630Y-100000299D01*
G37*
G36*
X70905630Y-100000299D02*
X71065855Y-100048903D01*
X71213520Y-100127831D01*
X71342949Y-100234051D01*
X71449169Y-100363480D01*
X71528097Y-100511145D01*
X71576701Y-100671370D01*
X71593112Y-100838000D01*
X71576701Y-101004630D01*
X71528097Y-101164855D01*
X71449169Y-101312520D01*
X71342949Y-101441949D01*
X71213520Y-101548169D01*
X71065855Y-101627097D01*
X70905630Y-101675701D01*
X70780752Y-101688000D01*
X70697248Y-101688000D01*
X70572370Y-101675701D01*
X70412145Y-101627097D01*
X70264480Y-101548169D01*
X70135051Y-101441949D01*
X70028831Y-101312520D01*
X69949903Y-101164855D01*
X69901299Y-101004630D01*
X69884888Y-100838000D01*
X69901299Y-100671370D01*
X69949903Y-100511145D01*
X70028831Y-100363480D01*
X70135051Y-100234051D01*
X70264480Y-100127831D01*
X70412145Y-100048903D01*
X70572370Y-100000299D01*
X70697248Y-99988000D01*
X70780752Y-99988000D01*
X70905630Y-100000299D01*
X70905630Y-100000299D01*
G37*
G36*
X68365630Y-100000299D02*
X68525855Y-100048903D01*
X68673520Y-100127831D01*
X68802949Y-100234051D01*
X68909169Y-100363480D01*
X68988097Y-100511145D01*
X69036701Y-100671370D01*
X69053112Y-100838000D01*
X69036701Y-101004630D01*
X68988097Y-101164855D01*
X68909169Y-101312520D01*
X68802949Y-101441949D01*
X68673520Y-101548169D01*
X68525855Y-101627097D01*
X68365630Y-101675701D01*
X68240752Y-101688000D01*
X68157248Y-101688000D01*
X68032370Y-101675701D01*
X67872145Y-101627097D01*
X67724480Y-101548169D01*
X67595051Y-101441949D01*
X67488831Y-101312520D01*
X67409903Y-101164855D01*
X67361299Y-101004630D01*
X67344888Y-100838000D01*
X67361299Y-100671370D01*
X67409903Y-100511145D01*
X67488831Y-100363480D01*
X67595051Y-100234051D01*
X67724480Y-100127831D01*
X67872145Y-100048903D01*
X68032370Y-100000299D01*
X68157248Y-99988000D01*
X68240752Y-99988000D01*
X68365630Y-100000299D01*
X68365630Y-100000299D01*
G37*
G36*
X65825630Y-100000299D02*
X65985855Y-100048903D01*
X66133520Y-100127831D01*
X66262949Y-100234051D01*
X66369169Y-100363480D01*
X66448097Y-100511145D01*
X66496701Y-100671370D01*
X66513112Y-100838000D01*
X66496701Y-101004630D01*
X66448097Y-101164855D01*
X66369169Y-101312520D01*
X66262949Y-101441949D01*
X66133520Y-101548169D01*
X65985855Y-101627097D01*
X65825630Y-101675701D01*
X65700752Y-101688000D01*
X65617248Y-101688000D01*
X65492370Y-101675701D01*
X65332145Y-101627097D01*
X65184480Y-101548169D01*
X65055051Y-101441949D01*
X64948831Y-101312520D01*
X64869903Y-101164855D01*
X64821299Y-101004630D01*
X64804888Y-100838000D01*
X64821299Y-100671370D01*
X64869903Y-100511145D01*
X64948831Y-100363480D01*
X65055051Y-100234051D01*
X65184480Y-100127831D01*
X65332145Y-100048903D01*
X65492370Y-100000299D01*
X65617248Y-99988000D01*
X65700752Y-99988000D01*
X65825630Y-100000299D01*
X65825630Y-100000299D01*
G37*
G36*
X63285630Y-100000299D02*
X63445855Y-100048903D01*
X63593520Y-100127831D01*
X63722949Y-100234051D01*
X63829169Y-100363480D01*
X63908097Y-100511145D01*
X63956701Y-100671370D01*
X63973112Y-100838000D01*
X63956701Y-101004630D01*
X63908097Y-101164855D01*
X63829169Y-101312520D01*
X63722949Y-101441949D01*
X63593520Y-101548169D01*
X63445855Y-101627097D01*
X63285630Y-101675701D01*
X63160752Y-101688000D01*
X63077248Y-101688000D01*
X62952370Y-101675701D01*
X62792145Y-101627097D01*
X62644480Y-101548169D01*
X62515051Y-101441949D01*
X62408831Y-101312520D01*
X62329903Y-101164855D01*
X62281299Y-101004630D01*
X62264888Y-100838000D01*
X62281299Y-100671370D01*
X62329903Y-100511145D01*
X62408831Y-100363480D01*
X62515051Y-100234051D01*
X62644480Y-100127831D01*
X62792145Y-100048903D01*
X62952370Y-100000299D01*
X63077248Y-99988000D01*
X63160752Y-99988000D01*
X63285630Y-100000299D01*
X63285630Y-100000299D01*
G37*
G36*
X81065630Y-100000299D02*
X81225855Y-100048903D01*
X81373520Y-100127831D01*
X81502949Y-100234051D01*
X81609169Y-100363480D01*
X81688097Y-100511145D01*
X81736701Y-100671370D01*
X81753112Y-100838000D01*
X81736701Y-101004630D01*
X81688097Y-101164855D01*
X81609169Y-101312520D01*
X81502949Y-101441949D01*
X81373520Y-101548169D01*
X81225855Y-101627097D01*
X81065630Y-101675701D01*
X80940752Y-101688000D01*
X80857248Y-101688000D01*
X80732370Y-101675701D01*
X80572145Y-101627097D01*
X80424480Y-101548169D01*
X80295051Y-101441949D01*
X80188831Y-101312520D01*
X80109903Y-101164855D01*
X80061299Y-101004630D01*
X80044888Y-100838000D01*
X80061299Y-100671370D01*
X80109903Y-100511145D01*
X80188831Y-100363480D01*
X80295051Y-100234051D01*
X80424480Y-100127831D01*
X80572145Y-100048903D01*
X80732370Y-100000299D01*
X80857248Y-99988000D01*
X80940752Y-99988000D01*
X81065630Y-100000299D01*
X81065630Y-100000299D01*
G37*
G36*
X58205630Y-100000299D02*
X58365855Y-100048903D01*
X58513520Y-100127831D01*
X58642949Y-100234051D01*
X58749169Y-100363480D01*
X58828097Y-100511145D01*
X58876701Y-100671370D01*
X58893112Y-100838000D01*
X58876701Y-101004630D01*
X58828097Y-101164855D01*
X58749169Y-101312520D01*
X58642949Y-101441949D01*
X58513520Y-101548169D01*
X58365855Y-101627097D01*
X58205630Y-101675701D01*
X58080752Y-101688000D01*
X57997248Y-101688000D01*
X57872370Y-101675701D01*
X57712145Y-101627097D01*
X57564480Y-101548169D01*
X57435051Y-101441949D01*
X57328831Y-101312520D01*
X57249903Y-101164855D01*
X57201299Y-101004630D01*
X57184888Y-100838000D01*
X57201299Y-100671370D01*
X57249903Y-100511145D01*
X57328831Y-100363480D01*
X57435051Y-100234051D01*
X57564480Y-100127831D01*
X57712145Y-100048903D01*
X57872370Y-100000299D01*
X57997248Y-99988000D01*
X58080752Y-99988000D01*
X58205630Y-100000299D01*
X58205630Y-100000299D01*
G37*
G36*
X83605630Y-100000299D02*
X83765855Y-100048903D01*
X83913520Y-100127831D01*
X84042949Y-100234051D01*
X84149169Y-100363480D01*
X84228097Y-100511145D01*
X84276701Y-100671370D01*
X84293112Y-100838000D01*
X84276701Y-101004630D01*
X84228097Y-101164855D01*
X84149169Y-101312520D01*
X84042949Y-101441949D01*
X83913520Y-101548169D01*
X83765855Y-101627097D01*
X83605630Y-101675701D01*
X83480752Y-101688000D01*
X83397248Y-101688000D01*
X83272370Y-101675701D01*
X83112145Y-101627097D01*
X82964480Y-101548169D01*
X82835051Y-101441949D01*
X82728831Y-101312520D01*
X82649903Y-101164855D01*
X82601299Y-101004630D01*
X82584888Y-100838000D01*
X82601299Y-100671370D01*
X82649903Y-100511145D01*
X82728831Y-100363480D01*
X82835051Y-100234051D01*
X82964480Y-100127831D01*
X83112145Y-100048903D01*
X83272370Y-100000299D01*
X83397248Y-99988000D01*
X83480752Y-99988000D01*
X83605630Y-100000299D01*
X83605630Y-100000299D01*
G37*
G36*
X86145630Y-100000299D02*
X86305855Y-100048903D01*
X86453520Y-100127831D01*
X86582949Y-100234051D01*
X86689169Y-100363480D01*
X86768097Y-100511145D01*
X86816701Y-100671370D01*
X86833112Y-100838000D01*
X86816701Y-101004630D01*
X86768097Y-101164855D01*
X86689169Y-101312520D01*
X86582949Y-101441949D01*
X86453520Y-101548169D01*
X86305855Y-101627097D01*
X86145630Y-101675701D01*
X86020752Y-101688000D01*
X85937248Y-101688000D01*
X85812370Y-101675701D01*
X85652145Y-101627097D01*
X85504480Y-101548169D01*
X85375051Y-101441949D01*
X85268831Y-101312520D01*
X85189903Y-101164855D01*
X85141299Y-101004630D01*
X85124888Y-100838000D01*
X85141299Y-100671370D01*
X85189903Y-100511145D01*
X85268831Y-100363480D01*
X85375051Y-100234051D01*
X85504480Y-100127831D01*
X85652145Y-100048903D01*
X85812370Y-100000299D01*
X85937248Y-99988000D01*
X86020752Y-99988000D01*
X86145630Y-100000299D01*
X86145630Y-100000299D01*
G37*
G36*
X88685630Y-100000299D02*
X88845855Y-100048903D01*
X88993520Y-100127831D01*
X89122949Y-100234051D01*
X89229169Y-100363480D01*
X89308097Y-100511145D01*
X89356701Y-100671370D01*
X89373112Y-100838000D01*
X89356701Y-101004630D01*
X89308097Y-101164855D01*
X89229169Y-101312520D01*
X89122949Y-101441949D01*
X88993520Y-101548169D01*
X88845855Y-101627097D01*
X88685630Y-101675701D01*
X88560752Y-101688000D01*
X88477248Y-101688000D01*
X88352370Y-101675701D01*
X88192145Y-101627097D01*
X88044480Y-101548169D01*
X87915051Y-101441949D01*
X87808831Y-101312520D01*
X87729903Y-101164855D01*
X87681299Y-101004630D01*
X87664888Y-100838000D01*
X87681299Y-100671370D01*
X87729903Y-100511145D01*
X87808831Y-100363480D01*
X87915051Y-100234051D01*
X88044480Y-100127831D01*
X88192145Y-100048903D01*
X88352370Y-100000299D01*
X88477248Y-99988000D01*
X88560752Y-99988000D01*
X88685630Y-100000299D01*
X88685630Y-100000299D01*
G37*
G36*
X53809000Y-101688000D02*
X52109000Y-101688000D01*
X52109000Y-99988000D01*
X53809000Y-99988000D01*
X53809000Y-101688000D01*
X53809000Y-101688000D01*
G37*
G36*
X55665630Y-100000299D02*
X55825855Y-100048903D01*
X55973520Y-100127831D01*
X56102949Y-100234051D01*
X56209169Y-100363480D01*
X56288097Y-100511145D01*
X56336701Y-100671370D01*
X56353112Y-100838000D01*
X56336701Y-101004630D01*
X56288097Y-101164855D01*
X56209169Y-101312520D01*
X56102949Y-101441949D01*
X55973520Y-101548169D01*
X55825855Y-101627097D01*
X55665630Y-101675701D01*
X55540752Y-101688000D01*
X55457248Y-101688000D01*
X55332370Y-101675701D01*
X55172145Y-101627097D01*
X55024480Y-101548169D01*
X54895051Y-101441949D01*
X54788831Y-101312520D01*
X54709903Y-101164855D01*
X54661299Y-101004630D01*
X54644888Y-100838000D01*
X54661299Y-100671370D01*
X54709903Y-100511145D01*
X54788831Y-100363480D01*
X54895051Y-100234051D01*
X55024480Y-100127831D01*
X55172145Y-100048903D01*
X55332370Y-100000299D01*
X55457248Y-99988000D01*
X55540752Y-99988000D01*
X55665630Y-100000299D01*
X55665630Y-100000299D01*
G37*
G36*
X127603770Y-97520372D02*
X127719689Y-97543429D01*
X127901678Y-97618811D01*
X128065463Y-97728249D01*
X128204751Y-97867537D01*
X128314189Y-98031322D01*
X128389571Y-98213311D01*
X128428000Y-98406509D01*
X128428000Y-98603491D01*
X128389571Y-98796689D01*
X128314189Y-98978678D01*
X128204751Y-99142463D01*
X128065463Y-99281751D01*
X127901678Y-99391189D01*
X127719689Y-99466571D01*
X127603770Y-99489628D01*
X127526493Y-99505000D01*
X127329507Y-99505000D01*
X127252230Y-99489628D01*
X127136311Y-99466571D01*
X126954322Y-99391189D01*
X126790537Y-99281751D01*
X126651249Y-99142463D01*
X126541811Y-98978678D01*
X126466429Y-98796689D01*
X126428000Y-98603491D01*
X126428000Y-98406509D01*
X126466429Y-98213311D01*
X126541811Y-98031322D01*
X126651249Y-97867537D01*
X126790537Y-97728249D01*
X126954322Y-97618811D01*
X127136311Y-97543429D01*
X127252230Y-97520372D01*
X127329507Y-97505000D01*
X127526493Y-97505000D01*
X127603770Y-97520372D01*
X127603770Y-97520372D01*
G37*
G36*
X122603770Y-97520372D02*
X122719689Y-97543429D01*
X122901678Y-97618811D01*
X123065463Y-97728249D01*
X123204751Y-97867537D01*
X123314189Y-98031322D01*
X123389571Y-98213311D01*
X123428000Y-98406509D01*
X123428000Y-98603491D01*
X123389571Y-98796689D01*
X123314189Y-98978678D01*
X123204751Y-99142463D01*
X123065463Y-99281751D01*
X122901678Y-99391189D01*
X122719689Y-99466571D01*
X122603770Y-99489628D01*
X122526493Y-99505000D01*
X122329507Y-99505000D01*
X122252230Y-99489628D01*
X122136311Y-99466571D01*
X121954322Y-99391189D01*
X121790537Y-99281751D01*
X121651249Y-99142463D01*
X121541811Y-98978678D01*
X121466429Y-98796689D01*
X121428000Y-98603491D01*
X121428000Y-98406509D01*
X121466429Y-98213311D01*
X121541811Y-98031322D01*
X121651249Y-97867537D01*
X121790537Y-97728249D01*
X121954322Y-97618811D01*
X122136311Y-97543429D01*
X122252230Y-97520372D01*
X122329507Y-97505000D01*
X122526493Y-97505000D01*
X122603770Y-97520372D01*
X122603770Y-97520372D01*
G37*
G36*
X175863770Y-97520372D02*
X175979689Y-97543429D01*
X176161678Y-97618811D01*
X176325463Y-97728249D01*
X176464751Y-97867537D01*
X176574189Y-98031322D01*
X176649571Y-98213311D01*
X176688000Y-98406509D01*
X176688000Y-98603491D01*
X176649571Y-98796689D01*
X176574189Y-98978678D01*
X176464751Y-99142463D01*
X176325463Y-99281751D01*
X176161678Y-99391189D01*
X175979689Y-99466571D01*
X175863770Y-99489628D01*
X175786493Y-99505000D01*
X175589507Y-99505000D01*
X175512230Y-99489628D01*
X175396311Y-99466571D01*
X175214322Y-99391189D01*
X175050537Y-99281751D01*
X174911249Y-99142463D01*
X174801811Y-98978678D01*
X174726429Y-98796689D01*
X174688000Y-98603491D01*
X174688000Y-98406509D01*
X174726429Y-98213311D01*
X174801811Y-98031322D01*
X174911249Y-97867537D01*
X175050537Y-97728249D01*
X175214322Y-97618811D01*
X175396311Y-97543429D01*
X175512230Y-97520372D01*
X175589507Y-97505000D01*
X175786493Y-97505000D01*
X175863770Y-97520372D01*
X175863770Y-97520372D01*
G37*
G36*
X152241770Y-97520372D02*
X152357689Y-97543429D01*
X152539678Y-97618811D01*
X152703463Y-97728249D01*
X152842751Y-97867537D01*
X152952189Y-98031322D01*
X153027571Y-98213311D01*
X153066000Y-98406509D01*
X153066000Y-98603491D01*
X153027571Y-98796689D01*
X152952189Y-98978678D01*
X152842751Y-99142463D01*
X152703463Y-99281751D01*
X152539678Y-99391189D01*
X152357689Y-99466571D01*
X152241770Y-99489628D01*
X152164493Y-99505000D01*
X151967507Y-99505000D01*
X151890230Y-99489628D01*
X151774311Y-99466571D01*
X151592322Y-99391189D01*
X151428537Y-99281751D01*
X151289249Y-99142463D01*
X151179811Y-98978678D01*
X151104429Y-98796689D01*
X151066000Y-98603491D01*
X151066000Y-98406509D01*
X151104429Y-98213311D01*
X151179811Y-98031322D01*
X151289249Y-97867537D01*
X151428537Y-97728249D01*
X151592322Y-97618811D01*
X151774311Y-97543429D01*
X151890230Y-97520372D01*
X151967507Y-97505000D01*
X152164493Y-97505000D01*
X152241770Y-97520372D01*
X152241770Y-97520372D01*
G37*
G36*
X170863770Y-97520372D02*
X170979689Y-97543429D01*
X171161678Y-97618811D01*
X171325463Y-97728249D01*
X171464751Y-97867537D01*
X171574189Y-98031322D01*
X171649571Y-98213311D01*
X171688000Y-98406509D01*
X171688000Y-98603491D01*
X171649571Y-98796689D01*
X171574189Y-98978678D01*
X171464751Y-99142463D01*
X171325463Y-99281751D01*
X171161678Y-99391189D01*
X170979689Y-99466571D01*
X170863770Y-99489628D01*
X170786493Y-99505000D01*
X170589507Y-99505000D01*
X170512230Y-99489628D01*
X170396311Y-99466571D01*
X170214322Y-99391189D01*
X170050537Y-99281751D01*
X169911249Y-99142463D01*
X169801811Y-98978678D01*
X169726429Y-98796689D01*
X169688000Y-98603491D01*
X169688000Y-98406509D01*
X169726429Y-98213311D01*
X169801811Y-98031322D01*
X169911249Y-97867537D01*
X170050537Y-97728249D01*
X170214322Y-97618811D01*
X170396311Y-97543429D01*
X170512230Y-97520372D01*
X170589507Y-97505000D01*
X170786493Y-97505000D01*
X170863770Y-97520372D01*
X170863770Y-97520372D01*
G37*
G36*
X147241770Y-97520372D02*
X147357689Y-97543429D01*
X147539678Y-97618811D01*
X147703463Y-97728249D01*
X147842751Y-97867537D01*
X147952189Y-98031322D01*
X148027571Y-98213311D01*
X148066000Y-98406509D01*
X148066000Y-98603491D01*
X148027571Y-98796689D01*
X147952189Y-98978678D01*
X147842751Y-99142463D01*
X147703463Y-99281751D01*
X147539678Y-99391189D01*
X147357689Y-99466571D01*
X147241770Y-99489628D01*
X147164493Y-99505000D01*
X146967507Y-99505000D01*
X146890230Y-99489628D01*
X146774311Y-99466571D01*
X146592322Y-99391189D01*
X146428537Y-99281751D01*
X146289249Y-99142463D01*
X146179811Y-98978678D01*
X146104429Y-98796689D01*
X146066000Y-98603491D01*
X146066000Y-98406509D01*
X146104429Y-98213311D01*
X146179811Y-98031322D01*
X146289249Y-97867537D01*
X146428537Y-97728249D01*
X146592322Y-97618811D01*
X146774311Y-97543429D01*
X146890230Y-97520372D01*
X146967507Y-97505000D01*
X147164493Y-97505000D01*
X147241770Y-97520372D01*
X147241770Y-97520372D01*
G37*
G36*
X57443500Y-98542000D02*
X56443500Y-98542000D01*
X56443500Y-97292000D01*
X57443500Y-97292000D01*
X57443500Y-98542000D01*
X57443500Y-98542000D01*
G37*
G36*
X55443500Y-98542000D02*
X54443500Y-98542000D01*
X54443500Y-97292000D01*
X55443500Y-97292000D01*
X55443500Y-98542000D01*
X55443500Y-98542000D01*
G37*
G36*
X197527000Y-92971000D02*
X196227000Y-92971000D01*
X196227000Y-92271000D01*
X197527000Y-92271000D01*
X197527000Y-92971000D01*
X197527000Y-92971000D01*
G37*
G36*
X111667412Y-90339637D02*
X111894896Y-90433864D01*
X112099631Y-90570664D01*
X112273736Y-90744769D01*
X112410536Y-90949504D01*
X112504763Y-91176988D01*
X112552800Y-91418485D01*
X112552800Y-91664715D01*
X112504763Y-91906212D01*
X112410536Y-92133696D01*
X112273736Y-92338431D01*
X112099631Y-92512536D01*
X111894896Y-92649336D01*
X111667412Y-92743563D01*
X111425915Y-92791600D01*
X111179685Y-92791600D01*
X110938188Y-92743563D01*
X110710704Y-92649336D01*
X110505969Y-92512536D01*
X110331864Y-92338431D01*
X110195064Y-92133696D01*
X110100837Y-91906212D01*
X110052800Y-91664715D01*
X110052800Y-91418485D01*
X110100837Y-91176988D01*
X110195064Y-90949504D01*
X110331864Y-90744769D01*
X110505969Y-90570664D01*
X110710704Y-90433864D01*
X110938188Y-90339637D01*
X111179685Y-90291600D01*
X111425915Y-90291600D01*
X111667412Y-90339637D01*
X111667412Y-90339637D01*
G37*
G36*
X187054612Y-90288837D02*
X187282096Y-90383064D01*
X187486831Y-90519864D01*
X187660936Y-90693969D01*
X187797736Y-90898704D01*
X187891963Y-91126188D01*
X187940000Y-91367685D01*
X187940000Y-91613915D01*
X187891963Y-91855412D01*
X187797736Y-92082896D01*
X187660936Y-92287631D01*
X187486831Y-92461736D01*
X187282096Y-92598536D01*
X187054612Y-92692763D01*
X186813115Y-92740800D01*
X186566885Y-92740800D01*
X186325388Y-92692763D01*
X186097904Y-92598536D01*
X185893169Y-92461736D01*
X185719064Y-92287631D01*
X185582264Y-92082896D01*
X185488037Y-91855412D01*
X185440000Y-91613915D01*
X185440000Y-91367685D01*
X185488037Y-91126188D01*
X185582264Y-90898704D01*
X185719064Y-90693969D01*
X185893169Y-90519864D01*
X186097904Y-90383064D01*
X186325388Y-90288837D01*
X186566885Y-90240800D01*
X186813115Y-90240800D01*
X187054612Y-90288837D01*
X187054612Y-90288837D01*
G37*
G36*
X197527000Y-91071000D02*
X196227000Y-91071000D01*
X196227000Y-90371000D01*
X197527000Y-90371000D01*
X197527000Y-91071000D01*
X197527000Y-91071000D01*
G37*
G36*
X65638401Y-90210400D02*
X64938401Y-90210400D01*
X64938401Y-88910400D01*
X65638401Y-88910400D01*
X65638401Y-90210400D01*
X65638401Y-90210400D01*
G37*
G36*
X63738401Y-90210400D02*
X63038401Y-90210400D01*
X63038401Y-88910400D01*
X63738401Y-88910400D01*
X63738401Y-90210400D01*
X63738401Y-90210400D01*
G37*
G36*
X59480400Y-90010400D02*
X58680400Y-90010400D01*
X58680400Y-89110400D01*
X59480400Y-89110400D01*
X59480400Y-90010400D01*
X59480400Y-90010400D01*
G37*
G36*
X61580400Y-90010400D02*
X60780400Y-90010400D01*
X60780400Y-89110400D01*
X61580400Y-89110400D01*
X61580400Y-90010400D01*
X61580400Y-90010400D01*
G37*
G36*
X194552770Y-85356372D02*
X194668689Y-85379429D01*
X194850678Y-85454811D01*
X195014463Y-85564249D01*
X195153751Y-85703537D01*
X195263189Y-85867322D01*
X195338571Y-86049311D01*
X195377000Y-86242509D01*
X195377000Y-86439491D01*
X195338571Y-86632689D01*
X195263189Y-86814678D01*
X195153751Y-86978463D01*
X195014463Y-87117751D01*
X194850678Y-87227189D01*
X194668689Y-87302571D01*
X194552770Y-87325628D01*
X194475493Y-87341000D01*
X194278507Y-87341000D01*
X194201230Y-87325628D01*
X194085311Y-87302571D01*
X193903322Y-87227189D01*
X193739537Y-87117751D01*
X193600249Y-86978463D01*
X193490811Y-86814678D01*
X193415429Y-86632689D01*
X193377000Y-86439491D01*
X193377000Y-86242509D01*
X193415429Y-86049311D01*
X193490811Y-85867322D01*
X193600249Y-85703537D01*
X193739537Y-85564249D01*
X193903322Y-85454811D01*
X194085311Y-85379429D01*
X194201230Y-85356372D01*
X194278507Y-85341000D01*
X194475493Y-85341000D01*
X194552770Y-85356372D01*
X194552770Y-85356372D01*
G37*
G36*
X199552770Y-85356372D02*
X199668689Y-85379429D01*
X199850678Y-85454811D01*
X200014463Y-85564249D01*
X200153751Y-85703537D01*
X200263189Y-85867322D01*
X200338571Y-86049311D01*
X200377000Y-86242509D01*
X200377000Y-86439491D01*
X200338571Y-86632689D01*
X200263189Y-86814678D01*
X200153751Y-86978463D01*
X200014463Y-87117751D01*
X199850678Y-87227189D01*
X199668689Y-87302571D01*
X199552770Y-87325628D01*
X199475493Y-87341000D01*
X199278507Y-87341000D01*
X199201230Y-87325628D01*
X199085311Y-87302571D01*
X198903322Y-87227189D01*
X198739537Y-87117751D01*
X198600249Y-86978463D01*
X198490811Y-86814678D01*
X198415429Y-86632689D01*
X198377000Y-86439491D01*
X198377000Y-86242509D01*
X198415429Y-86049311D01*
X198490811Y-85867322D01*
X198600249Y-85703537D01*
X198739537Y-85564249D01*
X198903322Y-85454811D01*
X199085311Y-85379429D01*
X199201230Y-85356372D01*
X199278507Y-85341000D01*
X199475493Y-85341000D01*
X199552770Y-85356372D01*
X199552770Y-85356372D01*
G37*
G36*
X72278000Y-82834000D02*
X70978000Y-82834000D01*
X70978000Y-82134000D01*
X72278000Y-82134000D01*
X72278000Y-82834000D01*
X72278000Y-82834000D01*
G37*
G36*
X194552770Y-80356372D02*
X194668689Y-80379429D01*
X194850678Y-80454811D01*
X195014463Y-80564249D01*
X195153751Y-80703537D01*
X195263189Y-80867322D01*
X195338571Y-81049311D01*
X195377000Y-81242509D01*
X195377000Y-81439491D01*
X195338571Y-81632689D01*
X195263189Y-81814678D01*
X195153751Y-81978463D01*
X195014463Y-82117751D01*
X194850678Y-82227189D01*
X194668689Y-82302571D01*
X194552770Y-82325628D01*
X194475493Y-82341000D01*
X194278507Y-82341000D01*
X194201230Y-82325628D01*
X194085311Y-82302571D01*
X193903322Y-82227189D01*
X193739537Y-82117751D01*
X193600249Y-81978463D01*
X193490811Y-81814678D01*
X193415429Y-81632689D01*
X193377000Y-81439491D01*
X193377000Y-81242509D01*
X193415429Y-81049311D01*
X193490811Y-80867322D01*
X193600249Y-80703537D01*
X193739537Y-80564249D01*
X193903322Y-80454811D01*
X194085311Y-80379429D01*
X194201230Y-80356372D01*
X194278507Y-80341000D01*
X194475493Y-80341000D01*
X194552770Y-80356372D01*
X194552770Y-80356372D01*
G37*
G36*
X199552770Y-80356372D02*
X199668689Y-80379429D01*
X199850678Y-80454811D01*
X200014463Y-80564249D01*
X200153751Y-80703537D01*
X200263189Y-80867322D01*
X200338571Y-81049311D01*
X200377000Y-81242509D01*
X200377000Y-81439491D01*
X200338571Y-81632689D01*
X200263189Y-81814678D01*
X200153751Y-81978463D01*
X200014463Y-82117751D01*
X199850678Y-82227189D01*
X199668689Y-82302571D01*
X199552770Y-82325628D01*
X199475493Y-82341000D01*
X199278507Y-82341000D01*
X199201230Y-82325628D01*
X199085311Y-82302571D01*
X198903322Y-82227189D01*
X198739537Y-82117751D01*
X198600249Y-81978463D01*
X198490811Y-81814678D01*
X198415429Y-81632689D01*
X198377000Y-81439491D01*
X198377000Y-81242509D01*
X198415429Y-81049311D01*
X198490811Y-80867322D01*
X198600249Y-80703537D01*
X198739537Y-80564249D01*
X198903322Y-80454811D01*
X199085311Y-80379429D01*
X199201230Y-80356372D01*
X199278507Y-80341000D01*
X199475493Y-80341000D01*
X199552770Y-80356372D01*
X199552770Y-80356372D01*
G37*
G36*
X68118195Y-80283522D02*
X68167267Y-80293283D01*
X68282466Y-80341000D01*
X68305942Y-80350724D01*
X68430750Y-80434118D01*
X68536882Y-80540250D01*
X68536884Y-80540253D01*
X68620276Y-80665058D01*
X68636215Y-80703537D01*
X68677717Y-80803734D01*
X68707000Y-80950948D01*
X68707000Y-81101052D01*
X68677717Y-81248266D01*
X68620276Y-81386942D01*
X68536882Y-81511750D01*
X68430750Y-81617882D01*
X68430747Y-81617884D01*
X68305942Y-81701276D01*
X68167267Y-81758717D01*
X68118195Y-81768478D01*
X68020052Y-81788000D01*
X67869948Y-81788000D01*
X67771805Y-81768478D01*
X67722733Y-81758717D01*
X67584058Y-81701276D01*
X67459253Y-81617884D01*
X67459250Y-81617882D01*
X67353118Y-81511750D01*
X67269724Y-81386942D01*
X67212283Y-81248266D01*
X67183000Y-81101052D01*
X67183000Y-80950948D01*
X67212283Y-80803734D01*
X67253786Y-80703537D01*
X67269724Y-80665058D01*
X67353116Y-80540253D01*
X67353118Y-80540250D01*
X67459250Y-80434118D01*
X67584058Y-80350724D01*
X67607534Y-80341000D01*
X67722733Y-80293283D01*
X67771805Y-80283522D01*
X67869948Y-80264000D01*
X68020052Y-80264000D01*
X68118195Y-80283522D01*
X68118195Y-80283522D01*
G37*
G36*
X65578195Y-80283522D02*
X65627267Y-80293283D01*
X65742466Y-80341000D01*
X65765942Y-80350724D01*
X65890750Y-80434118D01*
X65996882Y-80540250D01*
X65996884Y-80540253D01*
X66080276Y-80665058D01*
X66096215Y-80703537D01*
X66137717Y-80803734D01*
X66167000Y-80950948D01*
X66167000Y-81101052D01*
X66137717Y-81248266D01*
X66080276Y-81386942D01*
X65996882Y-81511750D01*
X65890750Y-81617882D01*
X65890747Y-81617884D01*
X65765942Y-81701276D01*
X65627267Y-81758717D01*
X65578195Y-81768478D01*
X65480052Y-81788000D01*
X65329948Y-81788000D01*
X65231805Y-81768478D01*
X65182733Y-81758717D01*
X65044058Y-81701276D01*
X64919253Y-81617884D01*
X64919250Y-81617882D01*
X64813118Y-81511750D01*
X64729724Y-81386942D01*
X64672283Y-81248266D01*
X64643000Y-81101052D01*
X64643000Y-80950948D01*
X64672283Y-80803734D01*
X64713786Y-80703537D01*
X64729724Y-80665058D01*
X64813116Y-80540253D01*
X64813118Y-80540250D01*
X64919250Y-80434118D01*
X65044058Y-80350724D01*
X65067534Y-80341000D01*
X65182733Y-80293283D01*
X65231805Y-80283522D01*
X65329948Y-80264000D01*
X65480052Y-80264000D01*
X65578195Y-80283522D01*
X65578195Y-80283522D01*
G37*
G36*
X63038195Y-80283522D02*
X63087267Y-80293283D01*
X63202466Y-80341000D01*
X63225942Y-80350724D01*
X63350750Y-80434118D01*
X63456882Y-80540250D01*
X63456884Y-80540253D01*
X63540276Y-80665058D01*
X63556215Y-80703537D01*
X63597717Y-80803734D01*
X63627000Y-80950948D01*
X63627000Y-81101052D01*
X63597717Y-81248266D01*
X63540276Y-81386942D01*
X63456882Y-81511750D01*
X63350750Y-81617882D01*
X63350747Y-81617884D01*
X63225942Y-81701276D01*
X63087267Y-81758717D01*
X63038195Y-81768478D01*
X62940052Y-81788000D01*
X62789948Y-81788000D01*
X62691805Y-81768478D01*
X62642733Y-81758717D01*
X62504058Y-81701276D01*
X62379253Y-81617884D01*
X62379250Y-81617882D01*
X62273118Y-81511750D01*
X62189724Y-81386942D01*
X62132283Y-81248266D01*
X62103000Y-81101052D01*
X62103000Y-80950948D01*
X62132283Y-80803734D01*
X62173786Y-80703537D01*
X62189724Y-80665058D01*
X62273116Y-80540253D01*
X62273118Y-80540250D01*
X62379250Y-80434118D01*
X62504058Y-80350724D01*
X62527534Y-80341000D01*
X62642733Y-80293283D01*
X62691805Y-80283522D01*
X62789948Y-80264000D01*
X62940052Y-80264000D01*
X63038195Y-80283522D01*
X63038195Y-80283522D01*
G37*
G36*
X60498195Y-80283522D02*
X60547267Y-80293283D01*
X60662466Y-80341000D01*
X60685942Y-80350724D01*
X60810750Y-80434118D01*
X60916882Y-80540250D01*
X60916884Y-80540253D01*
X61000276Y-80665058D01*
X61016215Y-80703537D01*
X61057717Y-80803734D01*
X61087000Y-80950948D01*
X61087000Y-81101052D01*
X61057717Y-81248266D01*
X61000276Y-81386942D01*
X60916882Y-81511750D01*
X60810750Y-81617882D01*
X60810747Y-81617884D01*
X60685942Y-81701276D01*
X60547267Y-81758717D01*
X60498195Y-81768478D01*
X60400052Y-81788000D01*
X60249948Y-81788000D01*
X60151805Y-81768478D01*
X60102733Y-81758717D01*
X59964058Y-81701276D01*
X59839253Y-81617884D01*
X59839250Y-81617882D01*
X59733118Y-81511750D01*
X59649724Y-81386942D01*
X59592283Y-81248266D01*
X59563000Y-81101052D01*
X59563000Y-80950948D01*
X59592283Y-80803734D01*
X59633786Y-80703537D01*
X59649724Y-80665058D01*
X59733116Y-80540253D01*
X59733118Y-80540250D01*
X59839250Y-80434118D01*
X59964058Y-80350724D01*
X59987534Y-80341000D01*
X60102733Y-80293283D01*
X60151805Y-80283522D01*
X60249948Y-80264000D01*
X60400052Y-80264000D01*
X60498195Y-80283522D01*
X60498195Y-80283522D01*
G37*
G36*
X72278000Y-80934000D02*
X70978000Y-80934000D01*
X70978000Y-80234000D01*
X72278000Y-80234000D01*
X72278000Y-80934000D01*
X72278000Y-80934000D01*
G37*
G36*
X197654000Y-77048000D02*
X196354000Y-77048000D01*
X196354000Y-76348000D01*
X197654000Y-76348000D01*
X197654000Y-77048000D01*
X197654000Y-77048000D01*
G37*
G36*
X197654000Y-75148000D02*
X196354000Y-75148000D01*
X196354000Y-74448000D01*
X197654000Y-74448000D01*
X197654000Y-75148000D01*
X197654000Y-75148000D01*
G37*
G36*
X86907630Y-71425299D02*
X87067855Y-71473903D01*
X87215520Y-71552831D01*
X87344949Y-71659051D01*
X87451169Y-71788480D01*
X87530097Y-71936145D01*
X87578701Y-72096370D01*
X87595112Y-72263000D01*
X87578701Y-72429630D01*
X87530097Y-72589855D01*
X87451169Y-72737520D01*
X87344949Y-72866949D01*
X87215520Y-72973169D01*
X87067855Y-73052097D01*
X86907630Y-73100701D01*
X86782752Y-73113000D01*
X86699248Y-73113000D01*
X86574370Y-73100701D01*
X86414145Y-73052097D01*
X86266480Y-72973169D01*
X86137051Y-72866949D01*
X86030831Y-72737520D01*
X85951903Y-72589855D01*
X85903299Y-72429630D01*
X85886888Y-72263000D01*
X85903299Y-72096370D01*
X85951903Y-71936145D01*
X86030831Y-71788480D01*
X86137051Y-71659051D01*
X86266480Y-71552831D01*
X86414145Y-71473903D01*
X86574370Y-71425299D01*
X86699248Y-71413000D01*
X86782752Y-71413000D01*
X86907630Y-71425299D01*
X86907630Y-71425299D01*
G37*
G36*
X199679770Y-69483372D02*
X199795689Y-69506429D01*
X199977678Y-69581811D01*
X200141463Y-69691249D01*
X200280751Y-69830537D01*
X200390189Y-69994322D01*
X200465571Y-70176311D01*
X200488628Y-70292230D01*
X200504000Y-70369507D01*
X200504000Y-70566493D01*
X200488628Y-70643770D01*
X200465571Y-70759689D01*
X200390189Y-70941678D01*
X200280751Y-71105463D01*
X200141463Y-71244751D01*
X199977678Y-71354189D01*
X199795689Y-71429571D01*
X199679770Y-71452628D01*
X199602493Y-71468000D01*
X199405507Y-71468000D01*
X199328230Y-71452628D01*
X199212311Y-71429571D01*
X199030322Y-71354189D01*
X198866537Y-71244751D01*
X198727249Y-71105463D01*
X198617811Y-70941678D01*
X198542429Y-70759689D01*
X198519372Y-70643770D01*
X198504000Y-70566493D01*
X198504000Y-70369507D01*
X198519372Y-70292230D01*
X198542429Y-70176311D01*
X198617811Y-69994322D01*
X198727249Y-69830537D01*
X198866537Y-69691249D01*
X199030322Y-69581811D01*
X199212311Y-69506429D01*
X199328230Y-69483372D01*
X199405507Y-69468000D01*
X199602493Y-69468000D01*
X199679770Y-69483372D01*
X199679770Y-69483372D01*
G37*
G36*
X194679770Y-69483372D02*
X194795689Y-69506429D01*
X194977678Y-69581811D01*
X195141463Y-69691249D01*
X195280751Y-69830537D01*
X195390189Y-69994322D01*
X195465571Y-70176311D01*
X195488628Y-70292230D01*
X195504000Y-70369507D01*
X195504000Y-70566493D01*
X195488628Y-70643770D01*
X195465571Y-70759689D01*
X195390189Y-70941678D01*
X195280751Y-71105463D01*
X195141463Y-71244751D01*
X194977678Y-71354189D01*
X194795689Y-71429571D01*
X194679770Y-71452628D01*
X194602493Y-71468000D01*
X194405507Y-71468000D01*
X194328230Y-71452628D01*
X194212311Y-71429571D01*
X194030322Y-71354189D01*
X193866537Y-71244751D01*
X193727249Y-71105463D01*
X193617811Y-70941678D01*
X193542429Y-70759689D01*
X193519372Y-70643770D01*
X193504000Y-70566493D01*
X193504000Y-70369507D01*
X193519372Y-70292230D01*
X193542429Y-70176311D01*
X193617811Y-69994322D01*
X193727249Y-69830537D01*
X193866537Y-69691249D01*
X194030322Y-69581811D01*
X194212311Y-69506429D01*
X194328230Y-69483372D01*
X194405507Y-69468000D01*
X194602493Y-69468000D01*
X194679770Y-69483372D01*
X194679770Y-69483372D01*
G37*
G36*
X86907630Y-68885299D02*
X87067855Y-68933903D01*
X87215520Y-69012831D01*
X87344949Y-69119051D01*
X87451169Y-69248480D01*
X87530097Y-69396145D01*
X87578701Y-69556370D01*
X87595112Y-69723000D01*
X87578701Y-69889630D01*
X87530097Y-70049855D01*
X87451169Y-70197520D01*
X87344949Y-70326949D01*
X87215520Y-70433169D01*
X87067855Y-70512097D01*
X86907630Y-70560701D01*
X86782752Y-70573000D01*
X86699248Y-70573000D01*
X86574370Y-70560701D01*
X86414145Y-70512097D01*
X86266480Y-70433169D01*
X86137051Y-70326949D01*
X86030831Y-70197520D01*
X85951903Y-70049855D01*
X85903299Y-69889630D01*
X85886888Y-69723000D01*
X85903299Y-69556370D01*
X85951903Y-69396145D01*
X86030831Y-69248480D01*
X86137051Y-69119051D01*
X86266480Y-69012831D01*
X86414145Y-68933903D01*
X86574370Y-68885299D01*
X86699248Y-68873000D01*
X86782752Y-68873000D01*
X86907630Y-68885299D01*
X86907630Y-68885299D01*
G37*
G36*
X86907630Y-66345299D02*
X87067855Y-66393903D01*
X87215520Y-66472831D01*
X87344949Y-66579051D01*
X87451169Y-66708480D01*
X87530097Y-66856145D01*
X87578701Y-67016370D01*
X87595112Y-67183000D01*
X87578701Y-67349630D01*
X87530097Y-67509855D01*
X87451169Y-67657520D01*
X87344949Y-67786949D01*
X87215520Y-67893169D01*
X87067855Y-67972097D01*
X86907630Y-68020701D01*
X86782752Y-68033000D01*
X86699248Y-68033000D01*
X86574370Y-68020701D01*
X86414145Y-67972097D01*
X86266480Y-67893169D01*
X86137051Y-67786949D01*
X86030831Y-67657520D01*
X85951903Y-67509855D01*
X85903299Y-67349630D01*
X85886888Y-67183000D01*
X85903299Y-67016370D01*
X85951903Y-66856145D01*
X86030831Y-66708480D01*
X86137051Y-66579051D01*
X86266480Y-66472831D01*
X86414145Y-66393903D01*
X86574370Y-66345299D01*
X86699248Y-66333000D01*
X86782752Y-66333000D01*
X86907630Y-66345299D01*
X86907630Y-66345299D01*
G37*
G36*
X83873500Y-67476500D02*
X82623500Y-67476500D01*
X82623500Y-66476500D01*
X83873500Y-66476500D01*
X83873500Y-67476500D01*
X83873500Y-67476500D01*
G37*
G36*
X194679770Y-64483372D02*
X194795689Y-64506429D01*
X194977678Y-64581811D01*
X195141463Y-64691249D01*
X195280751Y-64830537D01*
X195390189Y-64994322D01*
X195465571Y-65176311D01*
X195504000Y-65369509D01*
X195504000Y-65566491D01*
X195465571Y-65759689D01*
X195390189Y-65941678D01*
X195280751Y-66105463D01*
X195141463Y-66244751D01*
X194977678Y-66354189D01*
X194795689Y-66429571D01*
X194679770Y-66452628D01*
X194602493Y-66468000D01*
X194405507Y-66468000D01*
X194328230Y-66452628D01*
X194212311Y-66429571D01*
X194030322Y-66354189D01*
X193866537Y-66244751D01*
X193727249Y-66105463D01*
X193617811Y-65941678D01*
X193542429Y-65759689D01*
X193504000Y-65566491D01*
X193504000Y-65369509D01*
X193542429Y-65176311D01*
X193617811Y-64994322D01*
X193727249Y-64830537D01*
X193866537Y-64691249D01*
X194030322Y-64581811D01*
X194212311Y-64506429D01*
X194328230Y-64483372D01*
X194405507Y-64468000D01*
X194602493Y-64468000D01*
X194679770Y-64483372D01*
X194679770Y-64483372D01*
G37*
G36*
X199679770Y-64483372D02*
X199795689Y-64506429D01*
X199977678Y-64581811D01*
X200141463Y-64691249D01*
X200280751Y-64830537D01*
X200390189Y-64994322D01*
X200465571Y-65176311D01*
X200504000Y-65369509D01*
X200504000Y-65566491D01*
X200465571Y-65759689D01*
X200390189Y-65941678D01*
X200280751Y-66105463D01*
X200141463Y-66244751D01*
X199977678Y-66354189D01*
X199795689Y-66429571D01*
X199679770Y-66452628D01*
X199602493Y-66468000D01*
X199405507Y-66468000D01*
X199328230Y-66452628D01*
X199212311Y-66429571D01*
X199030322Y-66354189D01*
X198866537Y-66244751D01*
X198727249Y-66105463D01*
X198617811Y-65941678D01*
X198542429Y-65759689D01*
X198504000Y-65566491D01*
X198504000Y-65369509D01*
X198542429Y-65176311D01*
X198617811Y-64994322D01*
X198727249Y-64830537D01*
X198866537Y-64691249D01*
X199030322Y-64581811D01*
X199212311Y-64506429D01*
X199328230Y-64483372D01*
X199405507Y-64468000D01*
X199602493Y-64468000D01*
X199679770Y-64483372D01*
X199679770Y-64483372D01*
G37*
G36*
X87591000Y-65493000D02*
X85891000Y-65493000D01*
X85891000Y-63793000D01*
X87591000Y-63793000D01*
X87591000Y-65493000D01*
X87591000Y-65493000D01*
G37*
G36*
X83873500Y-65476500D02*
X82623500Y-65476500D01*
X82623500Y-64476500D01*
X83873500Y-64476500D01*
X83873500Y-65476500D01*
X83873500Y-65476500D01*
G37*
G36*
X210651703Y-59294486D02*
X210942883Y-59415097D01*
X211204944Y-59590201D01*
X211427799Y-59813056D01*
X211602903Y-60075117D01*
X211723514Y-60366297D01*
X211785000Y-60675412D01*
X211785000Y-60990588D01*
X211723514Y-61299703D01*
X211602903Y-61590883D01*
X211427799Y-61852944D01*
X211204944Y-62075799D01*
X210942883Y-62250903D01*
X210651703Y-62371514D01*
X210342588Y-62433000D01*
X210027412Y-62433000D01*
X209718297Y-62371514D01*
X209427117Y-62250903D01*
X209165056Y-62075799D01*
X208942201Y-61852944D01*
X208767097Y-61590883D01*
X208646486Y-61299703D01*
X208585000Y-60990588D01*
X208585000Y-60675412D01*
X208646486Y-60366297D01*
X208767097Y-60075117D01*
X208942201Y-59813056D01*
X209165056Y-59590201D01*
X209427117Y-59415097D01*
X209718297Y-59294486D01*
X210027412Y-59233000D01*
X210342588Y-59233000D01*
X210651703Y-59294486D01*
X210651703Y-59294486D01*
G37*
G36*
X54949703Y-59294486D02*
X55240883Y-59415097D01*
X55502944Y-59590201D01*
X55725799Y-59813056D01*
X55900903Y-60075117D01*
X56021514Y-60366297D01*
X56083000Y-60675412D01*
X56083000Y-60990588D01*
X56021514Y-61299703D01*
X55900903Y-61590883D01*
X55725799Y-61852944D01*
X55502944Y-62075799D01*
X55240883Y-62250903D01*
X54949703Y-62371514D01*
X54640588Y-62433000D01*
X54325412Y-62433000D01*
X54016297Y-62371514D01*
X53725117Y-62250903D01*
X53463056Y-62075799D01*
X53240201Y-61852944D01*
X53065097Y-61590883D01*
X52944486Y-61299703D01*
X52883000Y-60990588D01*
X52883000Y-60675412D01*
X52944486Y-60366297D01*
X53065097Y-60075117D01*
X53240201Y-59813056D01*
X53463056Y-59590201D01*
X53725117Y-59415097D01*
X54016297Y-59294486D01*
X54325412Y-59233000D01*
X54640588Y-59233000D01*
X54949703Y-59294486D01*
X54949703Y-59294486D01*
G37*
G36*
X187003812Y-59402437D02*
X187231296Y-59496664D01*
X187436031Y-59633464D01*
X187610136Y-59807569D01*
X187746936Y-60012304D01*
X187841163Y-60239788D01*
X187889200Y-60481285D01*
X187889200Y-60727515D01*
X187841163Y-60969012D01*
X187746936Y-61196496D01*
X187610136Y-61401231D01*
X187436031Y-61575336D01*
X187231296Y-61712136D01*
X187003812Y-61806363D01*
X186762315Y-61854400D01*
X186516085Y-61854400D01*
X186274588Y-61806363D01*
X186047104Y-61712136D01*
X185842369Y-61575336D01*
X185668264Y-61401231D01*
X185531464Y-61196496D01*
X185437237Y-60969012D01*
X185389200Y-60727515D01*
X185389200Y-60481285D01*
X185437237Y-60239788D01*
X185531464Y-60012304D01*
X185668264Y-59807569D01*
X185842369Y-59633464D01*
X186047104Y-59496664D01*
X186274588Y-59402437D01*
X186516085Y-59354400D01*
X186762315Y-59354400D01*
X187003812Y-59402437D01*
X187003812Y-59402437D01*
G37*
G36*
X111616612Y-59351637D02*
X111844096Y-59445864D01*
X112048831Y-59582664D01*
X112222936Y-59756769D01*
X112359736Y-59961504D01*
X112453963Y-60188988D01*
X112502000Y-60430485D01*
X112502000Y-60676715D01*
X112453963Y-60918212D01*
X112359736Y-61145696D01*
X112222936Y-61350431D01*
X112048831Y-61524536D01*
X111844096Y-61661336D01*
X111616612Y-61755563D01*
X111375115Y-61803600D01*
X111128885Y-61803600D01*
X110887388Y-61755563D01*
X110659904Y-61661336D01*
X110455169Y-61524536D01*
X110281064Y-61350431D01*
X110144264Y-61145696D01*
X110050037Y-60918212D01*
X110002000Y-60676715D01*
X110002000Y-60430485D01*
X110050037Y-60188988D01*
X110144264Y-59961504D01*
X110281064Y-59756769D01*
X110455169Y-59582664D01*
X110659904Y-59445864D01*
X110887388Y-59351637D01*
X111128885Y-59303600D01*
X111375115Y-59303600D01*
X111616612Y-59351637D01*
X111616612Y-59351637D01*
G37*
M02*
